<?xml version="1.0" encoding="UTF-8"?><svg xmlns="http://www.w3.org/2000/svg" viewBox="0 0 3266.98 3040"><defs><style>.s{fill:#ec0028;}.t,.u,.v,.w,.x{fill:#fff;}.y{letter-spacing:0em;}.a`{letter-spacing:-.01em;}.aa{letter-spacing:-.02em;}.ab,.ac{fill:#c82619;}.ad,.ae,.ac,.w,.af,.ag{stroke-miterlimit:10;}.ad,.ac,.w{stroke:#000;}.ah{letter-spacing:-.01em;}.ae,.ai{opacity:.5;}.ae,.af,.ag{fill:none;stroke-width:5px;}.ae,.ag{stroke:#d40000;}.aj,.u{font-family:PalatinoLinotype-Italic, Palatino Linotype;}.aj,.ak{font-size:12px;}.al{letter-spacing:-.03em;}.am{letter-spacing:-.02em;}.an{letter-spacing:0em;}.ao{letter-spacing:0em;}.ap{letter-spacing:-.01em;}.aq{letter-spacing:-.02em;}.ar{fill:gray;}.u,.as,.x{font-size:38.89px;}.at{font-size:57.07px;}.at,.v,.as,.x,.au{font-family:AbrilFatface-Regular, Abril Fatface;}.av{letter-spacing:0em;}.aw{letter-spacing:-.02em;}.ax{letter-spacing:-.1em;}.v{font-size:58.16px;}.ay{letter-spacing:0em;}.b`{letter-spacing:0em;}.ai,.ba{fill:#ed1c24;}.af{stroke:#c82619;}.bb{letter-spacing:-.1em;}.bc{letter-spacing:0em;}.bd{letter-spacing:-.01em;}.ak{font-family:MyriadPro-Regular, Myriad Pro;}.be{letter-spacing:-.02em;}.au{font-size:38.89px;}.bf{letter-spacing:-.02em;}.bg{fill:#13008d;}</style></defs><g id="a"><rect x="2041" y="1020" width="998" height="998"/><g><g><path class="ai" d="M2373.65,1460.43c-22.57,.16-43.52,19.45-43.77,46.21-.23,24.49,18.95,46.3,44.21,46.54"/><path class="ai" d="M2363.14,1631.19c-16.09-59.51-65.04-88.58-105.24-90.34,4.29,19.94,13.71,36.61,26.31,51.41,23.35,27.42,58.83,40.31,78.93,38.93Z"/><path class="ai" d="M2258.46,1472.96c49.35-3.84,91.57-39.79,104.59-90.73-52.52,.28-98.26,48.99-104.59,90.73Z"/><path class="ae" d="M2373.04,1637.13c-69.05,0-125.03-58.62-125.03-130.92,0-72.31,55.98-130.92,125.03-130.92"/></g><path class="t" d="M2355.66,1396.26c3.44-1.43,5.92,1.01,8.61,2.31,1.72,.83,3.24,2.19,5.01,2.83,1.51,.54,4.14,1.12,4.7,.38,1.47-1.94,3.96-3.99,2.09-7.27-1.27-2.23-2.02-4.78-3.34-6.97-4.41-7.27-3.43-15.63,2.78-20.92,1.23,2.11,2.07,4.62,3.73,6.14,3.3,3.03,6.94,5.69,10.65,8.15,2.34,1.55,3.32,3.21,3.75,6.22,.81,5.8-1.05,8.91-6.15,11.2-4.68,2.1-6.87,7.08-9.09,11.65-.43,.88-.06,2.17-.06,4.75,5.62-4.6,10.61-8.37,15.24-12.58,3.85-3.5,7.19-7.59,10.9-11.26,3.46-3.42,6.26-7.07,7.46-12.12,1.02-4.27,3.36-4.73,6.37-1.53,3.23,3.43,6.18,7.16,9.63,11.2-11.28,5.45-11.92,17.79-19.02,25.37l.85,.89c1.94-.95,3.83-2.05,5.84-2.81,2.99-1.14,6.01-2.38,9.13-2.92,2.41-.42,4.95-.05,6.37,2.89,.74,1.53,2.07,2.74,3.1,4.12,3.54,4.75,3.22,6.04-1.79,9.11-4.29,2.62-8.49,5.43-12.74,8.56,5.47,.17,7.92,3.55,9.69,8.25,1.07,2.83-.08,4.25-2.07,4.96-4.37,1.55-8.92,2.53-13.29,4.06-2.1,.73-3.96,2.19-5.93,3.32,1.64,1.51,3.16,3.2,4.95,4.48,2.06,1.47,4.31,2.69,6.57,3.79,2.81,1.37,3.87,4.06,2.83,6.48-.95,2.22-3.18,4.34-5.34,5.4-4.16,2.03-8.71,3.17-13.01,4.92-.88,.36-1.8,1.66-1.98,2.66-.65,3.68-.99,7.42-1.43,11.01,4.21-.91,7.64-1.61,11.05-2.4,3.26-.76,4.34,2.04,5.71,4.02,.93,1.35,1,3.32,1.77,4.83,1.42,2.79,1.31,5.28-.16,8.09-2.97,5.69-1.19,11.89-1.16,17.87,0,.63,1.82,1.65,2.89,1.81,4.5,.65,9.02,1.35,13.55,1.48,8.34,.24,12.53,5.9,15.85,12.73,1.02,2.11,1.42,4.54,2.19,7.09-5-1.37-9.14-3.08-13.4-3.5-4.3-.43-8.72,.42-14.14,.78,3.32-3.24,6.24-6.09,9.17-8.94-2.86-3.36-24.75-4.64-28.52-1.74,2.06,1.49,3.92,2.92,5.85,4.22,1.6,1.07,3.46,1.78,4.87,3.07,1.18,1.08,2.87,3.69,2.61,3.99-1.53,1.78-3.4,3.62-5.5,4.39-1.77,.65-4.03-.39-6.04-.19-1.44,.14-2.82,1.08-4.22,1.66,.83,1.06,1.45,2.58,2.52,3.1,8.75,4.23,17.63,8.14,26.35,12.44,3.64,1.79,7.08,4.11,10.4,6.5,4.14,2.99,4.77,5.94,2.28,10.7-3.01,5.77-6.64,11.04-12.89,13.46-.91,.35-1.91,.46-3.39,.8,3.01-11.27-.93-19.53-8.42-26.33-5.61-5.09-11.38-9.97-17.17-14.84-1.95-1.64-3.95-1.09-5.89,.44-11.55,9.1-21.13,20.02-28.25,33.26-4.73,8.8-9.58,17.53-14.51,26.22-.73,1.29-2.17,2.15-3.28,3.21-.8-1.15-1.88-2.19-2.34-3.47-1.89-5.21-3.73-10.45-5.25-15.79-.44-1.55-.36-3.93,.5-5.1,2.17-2.94,4.66-5.78,7.51-7.96,3.55-2.72,6.02-5.95,7.34-10.3,.36-1.18,1.19-2.21,1.8-3.31,.31,.08,.62,.15,.92,.23,.49,4.18,.98,8.37,1.61,13.67,10.71-11.76,20.69-22.74,30.89-33.94-1.64-1-2.83-1.73-4.03-2.46l.25-.88h7.34l.3-.8c-1.25-1.02-2.37-2.29-3.76-3.01-2.67-1.38-2.67-3.2-1.11-5.33,1.83-2.49,3.82-4.85,6.38-8.08-2.57,.41-4.43,.48-6.14,1.03-4.07,1.32-8.11,2.78-12.11,4.35-2.5,.98-3.31,2.95-3.57,5.85-.62,6.94-1.81,13.83-2.84,20.72-.14,.92-.7,1.77-1.3,3.24-5.96-6.9-5.85-15.17-7-23.54-1.17,.2-2.42,.3-3.6,.64-3.66,1.05-7.27,2.27-10.94,3.28-7.9,2.18-15.54-2.1-16.59-11.37-.55-4.88-1.34-9.62,1.13-15.39,6.85,14.92,18.5,14.31,30.6,11.82,.05-33.63,2.8-67.28,1.6-101.86-3.48,2.35-5.62,4.02-5.61,8.01,.02,9.37-.38,18.74-.66,28.11-.08,2.66-5.02,7.4-7.4,7.26-2.72-.16-6.54-4.43-6.4-7.48,.41-9.07,.88-18.14,1.52-27.19,.1-1.49,.88-3.18,1.85-4.3,4.64-5.34,9.51-10.46,14.18-15.76,2.31-2.62,4.37-5.47,6.61-8.3q-9.68-5.05-16.8-17.53Zm34.07,132.1c-.79-3.68-1.72-6.64-2.02-9.67-.63-6.41,1.61-12.26,3.53-18.21,1.96-6.05,3.45-12.26,5.08-18.16-4.76-1.37-8.6-2.2-12.23-3.62-2.27-.88-3.24-2.96-1.45-5.39,2.54-3.47,5.1-6.93,7.7-10.36,3.3-4.34,6.65-8.63,9.98-12.95-1.85-.56-3.1-.28-4.36-.08-3.86,.62-7.55,.24-10.26-3.06-2.42-2.95-.02-5.6,.9-8.3,.23-.68,.42-1.39,.76-2.52,2.06,.62,3.98,1.2,5.89,1.77-.27-1.84-.87-3.49-1.94-3.96-3.46-1.52-3.06-4.45-2.91-7.32,.12-2.37,.44-4.74,.71-7.1,.39-3.34,2.77-4.93,5.42-5.7,.37-.11,1.73,3.36,2.57,5.2,.19,.42,.14,.97,.19,1.45,.68-5.64,3.58-9.2,8.46-11.61,4.43-2.19,6.41-9.61,3.75-13.01-.95,.65-2,1.25-2.91,2.02-8.16,6.97-16.19,14.12-24.49,20.9-3.13,2.56-5.39,5.37-5.37,9.52,.18,34.32,.46,68.63,.72,102.95,0,.37,.14,.73,.43,2.21,4.15-1.76,8.08-3.43,11.84-5.02Zm22.83-19.49l1.26-1.4c-1.22-3.25-2.31-6.57-3.76-9.7-.41-.88-1.96-1.77-2.89-1.67-2.98,.3-8.4,6.42-9.04,10.64,5.97-7.04,10.04-1.33,14.44,2.13Zm-1.93-74.39l1.82,.25c1.44-4.24,3.11-8.41,4.19-12.75,.32-1.29-1.01-3.02-1.58-4.55-1.7,.97-4.78,1.83-4.86,2.94-.34,4.67,.21,9.4,.44,14.11Zm-1.12,80.21c-.68,.13-1.36,.26-2.04,.38-.28,3.25-.88,6.53-.62,9.73,.08,.92,2.69,2.3,4.06,2.2,1.06-.08,3.03-2.51,2.79-3.24-1.04-3.16-2.74-6.07-4.2-9.07Zm-11.44,8.44l1.25,.42c.46-.27,1.19-.43,1.35-.83,1.23-3.1,2.57-6.18,3.38-9.41,.32-1.26-.65-2.87-1.03-4.32-1.24,.75-3.35,1.31-3.56,2.3-.79,3.87-.98,7.88-1.4,11.84Zm2.19-52.49c-1.9-3.18-3.23-5.41-4.81-8.06-2.43,3.12-4.46,5.73-7.19,9.24,4.45-.44,7.7-.76,12.01-1.18Zm-17.58-79.14c1.61-.84,3.25-1.7,4.87-2.55-.3-.73-.37-1.31-.68-1.61-1.53-1.47-2.98-3.67-4.76-4.03-1.33-.27-1.36,5.08,.57,8.19Z"/><path class="t" d="M2390.82,1570.69c.09,.58,.12,.68,.11,.78-.26,2.81-.51,5.61-.77,8.42,2.17,.03,4.35,.26,6.49,.03,2.35-.26,4.88-.48,6.91-1.58,2.15-1.17,3.81-3.35,6.08-5.46,1.83,1.23,2.95,3.86,3.61,7.08,.93,4.55-2.81,4.72-5.34,6.24,4.06,4.24,7.83,8.17,12.45,13-3.3,1.85-5.6,3.16-7.92,4.42-.62,.34-1.36,.46-1.98,.79-4.76,2.55-4.79,3.31-1.38,7.64,3.03,3.84,5.83,7.88,8.58,11.96,2.44,3.62,1.69,7.41-1.29,11.24-3.07,3.94-5.77,8.25-8.18,12.67-1.96,3.59-2.67,7.48,.4,11.17,.74,.89,.75,2.45,1.44,4.9-2.81-1-4.84-1.31-6.41-2.37-2.8-1.9-5.38-4.16-7.94-6.43-5.4-4.79-10.66-9.77-16.1-14.51-3.71-3.23-4.26-5.23-1.37-9.33,2.77-3.93,5.78-7.68,8.88-11.33,2.25-2.65,4.81-5.17,8.7-3.64,3.89,1.53,7.13,6.43,7.2,10.7,.09,5.14-2.07,7.28-7.69,6.83,1.3-2.11,2.42-3.93,3.6-5.85-3.66-1.05-9.97,1.89-9.51,4.59,.49,2.85,2.24,5.9,4.3,7.87,1.24,1.18,4.51,1.31,6.22,.47,8.37-4.1,10.21-12.82,4.89-20.67-1.85-2.73-3.46-5.68-4.8-8.72-1.29-2.91-3.25-3.74-6.08-3.37-2.61,.34-5.27,.36-7.86,.81-3.24,.56-5.22-.88-6.68-3.75-1.07-2.09-2.09-3.83,.63-5.62,1.01-.67,1.16-2.64,1.94-3.84,.95-1.45,2.17-2.71,3.27-4.05l1.07,.76c-.49,2.12-1.02,4.24-1.46,6.37-.53,2.52,.88,4.23,3.27,3.94,1.65-.2,3.28-.59,4.93-.84,2.47-.38,3.64-2.04,4.07-4.44,.11-.62,.06-1.27,.07-1.9,.2-7.62,.27-7.33-6.86-5.39-2.22,.6-5.69-.01-7.2-1.56-1.18-1.21-.92-5.05-.03-7.12,1.58-3.71,4.09-6.98,6.28-10.39,.2-.31,.84-.31,1.5-.52Z"/><g><path class="ai" d="M2706.35,1464.11c22.57,.16,43.52,19.45,43.77,46.21,.23,24.49-18.95,46.3-44.21,46.54"/><path class="ai" d="M2716.86,1634.86c16.09-59.51,65.04-88.58,105.24-90.34-4.29,19.94-13.71,36.61-26.31,51.41-23.35,27.42-58.83,40.31-78.93,38.93Z"/><path class="ai" d="M2821.54,1476.64c-49.35-3.84-91.57-39.79-104.59-90.73,52.52,.28,98.26,48.99,104.59,90.73Z"/><path class="ae" d="M2706.96,1640.81c69.05,0,125.03-58.62,125.03-130.92s-55.98-130.92-125.03-130.92"/></g><text class="v" transform="translate(2452.83 1420.92) scale(1.01 1)"><tspan class="ax" x="0" y="0">K</tspan><tspan class="be" x="36.87" y="0">y</tspan><tspan x="66.36" y="0">o</tspan><tspan class="bd" x="97.94" y="0">k</tspan><tspan class="an" x="133.13" y="0">ushin </tspan><tspan class="bf" x="0" y="69.79">K</tspan><tspan class="an" x="41.76" y="69.79">a</tspan><tspan class="bd" x="73.69" y="69.79">ra</tspan><tspan x="132.66" y="69.79">té </tspan><tspan x="0" y="139.58">C</tspan><tspan class="ay" x="40.13" y="139.58">l</tspan><tspan class="an" x="58.22" y="139.58">ub </tspan><tspan x="0" y="209.37">Gode</tspan><tspan class="bd" x="137.84" y="209.37">r</tspan><tspan x="165.75" y="209.37">ville</tspan></text><g><rect class="t" x="2704.69" y="1432.34" width="19.72" height="20"/><rect class="t" x="2704.69" y="1469.52" width="19.72" height="87.61"/><path class="t" d="M2780.57,1432.34h12.1c0,36.34-24.61,65.75-55.03,65.75v-28.77c23.76,0,42.94-16.72,42.94-36.98Z"/><path class="t" d="M2724.41,1515.77v-11.65c37.73,0,68.26,23.71,68.26,53.01h-29.87c0-22.89-17.36-41.36-38.39-41.36Z"/></g></g></g><g id="b"><g id="c"/><g id="d"/><rect class="bg" x="2040" width="1000" height="1000"/><g><path class="af" d="M2471.36,231.41c28.1-10.62,58.1-14.62,88.05-13.84"/><path class="ag" d="M2419.44,254.45c3.26-1.83,6.56-3.61,9.89-5.32"/><path class="ag" d="M2398.31,267.88c3.5-2.45,7.05-4.83,10.65-7.12"/><path class="ag" d="M2372.36,288.21c2.49-2.19,5.01-4.34,7.57-6.44"/><path class="ag" d="M2349.66,691.32c-4.79-5.2-9.34-10.62-13.66-16.21"/><path class="af" d="M2559.4,783.47c-33.34-1.27-66.97-5.02-98.69-15.86-9.03-3.09-17.87-6.74-26.41-11.01"/><path d="M2530.45,610.98c-6.78-4.67-13.79-9.18-21.21-12.67-17.78-8.37-35.91-15.99-53.75-24.24-2.18-1.01-3.44-3.98-5.13-6.03,2.86-1.14,5.67-2.97,8.61-3.24,4.09-.38,8.71,1.64,12.32,.38,4.29-1.5,8.09-5.08,11.22-8.56,.53-.59-2.91-5.68-5.32-7.78-2.87-2.5-6.68-3.88-9.93-5.98-3.95-2.54-7.74-5.31-11.94-8.22,7.69-5.66,52.36-3.15,58.19,3.38-5.97,5.56-11.93,11.1-18.71,17.41,11.07-.7,20.08-2.36,28.85-1.53,8.69,.82,17.14,4.15,27.34,6.82-1.56-4.95-2.37-9.7-4.46-13.8-6.77-13.3-15.32-24.34-32.33-24.8-9.24-.25-18.47-1.6-27.65-2.88-2.18-.3-5.9-2.29-5.9-3.52-.06-11.65-3.69-23.73,2.37-34.81,2.99-5.47,3.22-10.32,.32-15.76-1.57-2.95-1.71-6.78-3.6-9.41-2.78-3.86-4.99-9.3-11.65-7.82-6.96,1.54-13.95,2.91-22.53,4.68,.9-6.99,1.6-14.28,2.92-21.45,.36-1.96,2.24-4.5,4.03-5.19,8.78-3.4,18.05-5.63,26.55-9.58,4.41-2.05,8.96-6.18,10.9-10.51,2.12-4.73-.05-9.97-5.78-12.63-4.62-2.15-9.2-4.53-13.41-7.39-3.65-2.49-6.75-5.79-10.1-8.73,4.02-2.2,7.83-5.03,12.1-6.46,8.93-2.98,18.21-4.89,27.12-7.92,4.05-1.38,6.4-4.15,4.22-9.66-3.63-9.15-8.63-15.73-19.78-16.07,8.67-6.09,17.22-11.56,25.99-16.67,10.24-5.97,10.88-8.5,3.66-17.75-2.1-2.69-4.83-5.05-6.33-8.03-2.89-5.73-8.08-6.46-12.99-5.64-6.35,1.06-12.51,3.48-18.62,5.69-4.1,1.49-7.95,3.63-11.92,5.48-.58-.58-1.15-1.15-1.73-1.73,14.49-14.78,15.79-38.82,38.8-49.43-7.05-7.88-13.06-15.14-19.66-21.82-5.09-5.16-9.23-5.42-11.68-.65,2.22,2.55,1.42,7.45-2.38,8.32-.26,.75-.67,1.44-1.26,1.98-2.97,6.57-7.54,11.89-12.9,16.95-7.57,7.15-14.39,15.12-22.24,21.93-9.45,8.2-19.63,15.54-31.09,24.51,0-5.03-.74-7.56,.12-9.26,4.53-8.89,9-18.61,18.55-22.69,8.12-3.47,12.21-7.95,12.82-15.12-1.82-1.8-1.93-5.05-.33-7.03-.89-5.65-2.91-8.82-7.59-11.78-7.58-4.79-15.01-9.99-21.74-15.89-3.39-2.97-5.09-7.86-7.61-11.97-12.67,10.29-14.67,26.59-5.68,40.75,2.23,3.51,3.67,7.51,5.55,11.23,.5,.56,.86,1.24,1.07,1.97,.07,.12,.13,.24,.2,.36,3.81,6.39-1.26,10.38-4.26,14.16-1.15,1.45-6.52,.32-9.6-.73-.29-.1-.58-.22-.86-.34-1.75,.05-3.43-.94-4.44-2.37-1.61-.99-3.22-2.02-4.92-2.8-5.5-2.53-10.55-7.29-17.57-4.5,3.91,6.53,6.76,11.3,9.23,14.99,.16,.2,.3,.41,.43,.64,6.47,9.48,10.49,11.49,24.61,18.52-4.57,5.51-8.78,11.08-13.49,16.18-9.54,10.34-19.47,20.31-28.93,30.71-1.98,2.18-3.57,5.48-3.78,8.38-1.3,17.64-2.26,35.31-3.1,52.98-.28,5.95,7.5,14.27,13.06,14.58,4.85,.27,14.94-8.96,15.1-14.15,.59-18.25,1.4-36.51,1.36-54.77-.02-7.78,4.35-11.03,11.45-15.6,2.44,67.37-3.16,132.93-3.26,198.46-24.69,4.84-48.46,6.04-62.43-23.03-5.03,11.25-3.43,20.47-2.3,29.98,2.15,18.06,17.74,26.39,33.84,22.15,7.48-1.97,14.86-4.34,22.32-6.38,2.41-.66,4.95-.86,7.35-1.25,2.34,16.31,2.12,32.42,14.29,45.86,1.24-2.86,2.38-4.52,2.66-6.32,2.11-13.44,4.53-26.85,5.8-40.38,.53-5.66,2.19-9.5,7.29-11.4,8.15-3.05,16.38-5.9,24.7-8.47,3.49-1.08,7.27-1.2,12.52-2-5.23,6.28-9.28,10.89-13.03,15.74-3.2,4.14-3.2,7.69,2.26,10.38,2.83,1.4,5.13,3.87,7.68,5.86-.2,.52-.41,1.04-.61,1.55h-14.97c-.17,.57-.33,1.14-.5,1.72,2.44,1.42,4.88,2.84,8.22,4.79-20.8,21.82-41.17,43.2-63.01,66.12-1.27-10.33-2.28-18.48-3.28-26.63-.63-.15-1.26-.3-1.88-.44-1.25,2.14-2.95,4.15-3.68,6.46-2.68,8.48-7.72,14.77-14.97,20.07-5.81,4.25-10.9,9.79-15.32,15.51-1.76,2.28-1.93,6.91-1.02,9.93,.62,2.07,1.28,4.14,1.95,6.2,1.05,1,1.55,2.46,1.53,3.91,.8,1.04,1.16,2.41,1.06,3.73,1.97,5.67,4.05,11.31,6.18,16.92,.95,2.5,3.15,4.52,4.78,6.77,1.64-1.5,3.63-2.79,5.17-4.35,.1-.58,.3-1.14,.6-1.66,.27-.34,.53-.69,.8-1.03,.08-.08,.18-.15,.26-.23,.23-1.58,1.12-3.05,2.67-3.75,9.08-15.35,18.04-30.77,26.79-46.31,14.53-25.8,34.07-47.06,57.64-64.8,3.97-2.98,8.03-4.07,12.02-.87,11.8,9.48,23.59,18.99,35.03,28.91,15.27,13.24,23.32,29.35,17.17,51.3,3.02-.66,5.06-.87,6.92-1.56,12.75-4.71,20.14-14.97,26.29-26.22,5.07-9.28,3.79-15.03-4.66-20.85Zm-65.49-299.86c.16-2.15,6.45-3.83,9.91-5.72,1.17,2.98,3.88,6.36,3.23,8.86-2.2,8.45-5.6,16.58-8.54,24.83-1.24-.16-2.47-.32-3.71-.48-.46-9.18-1.59-18.41-.89-27.5Zm-57.28-72.2c2.5,.49,4.69,2.68,6.83,4.93,1.25,.5,2.1,1.46,2.56,2.61,.11,.1,.22,.21,.33,.31,.64,.59,.79,1.72,1.39,3.14-.58,.29-1.17,.59-1.76,.88-.69,1.62-2.18,2.88-4.47,2.88-.38,0-.74-.04-1.07-.1-.88,.44-1.76,.88-2.63,1.32-.62-.96-1.15-2.03-1.57-3.15-1-1.16-1.39-2.79-1.17-4.32-.81-4.65-.17-8.84,1.58-8.49Zm58.76,279.96c-2.79,.19-8.13-2.49-8.29-4.29-.54-6.24,.7-12.62,1.26-18.95,1.39-.25,2.77-.5,4.16-.75,2.98,5.85,6.45,11.53,8.56,17.68,.49,1.43-3.54,6.17-5.7,6.31Zm-7.67-60.22c1.91-.18,5.07,1.55,5.9,3.26,2.97,6.1,5.18,12.57,7.68,18.9l-2.57,2.73c-8.98-6.75-17.28-17.87-29.46-4.15,1.3-8.23,12.36-20.15,18.45-20.73Zm-38.56-47.29c5.58-6.85,9.72-11.92,14.67-18.01,3.23,5.17,5.94,9.5,9.82,15.7-8.78,.83-15.42,1.45-24.5,2.3Zm6.09,55.83c-3.93,11.58-8.5,22.99-7.21,35.47,.61,5.9,2.5,11.68,4.11,18.84-7.68,3.11-15.69,6.36-24.16,9.78-.61-2.88-.88-3.59-.89-4.3-.52-66.86-1.08-133.72-1.46-200.58-.05-8.08,4.56-13.56,10.96-18.55,16.94-13.21,33.32-27.14,49.97-40.72,1.85-1.51,3.99-2.66,5.93-3.94,5.44,6.62,1.4,21.07-7.65,25.34-9.95,4.69-15.86,11.64-17.25,22.62-.12-.95,0-2.01-.39-2.83-1.71-3.59-4.48-10.35-5.23-10.14-5.39,1.51-10.26,4.6-11.05,11.1-.56,4.6-1.2,9.21-1.45,13.83-.3,5.59-1.12,11.32,5.93,14.27,2.18,.91,3.4,4.13,3.95,7.71-3.9-1.12-7.81-2.24-12.02-3.45-.7,2.22-1.08,3.59-1.55,4.92-1.88,5.27-6.77,10.42-1.83,16.17,5.52,6.43,13.05,7.17,20.93,5.97,2.57-.39,5.12-.95,8.89,.15-6.8,8.4-13.64,16.77-20.37,25.23-5.31,6.67-10.53,13.41-15.71,20.18-3.63,4.75-1.67,8.79,2.97,10.51,7.41,2.76,15.23,4.38,24.95,7.05-3.33,11.5-6.37,23.6-10.37,35.38Zm19.22,43.33c-.33,.78-1.81,1.09-2.75,1.62-.85-.27-1.7-.54-2.55-.81,.84-7.71,1.23-15.52,2.85-23.07,.41-1.92,4.73-3,7.25-4.47,.78,2.82,2.74,5.96,2.1,8.41-1.65,6.28-4.4,12.29-6.9,18.33Z"/><path class="ab" d="M2586.71,762.51c35.46-125.22,143.32-186.41,231.89-190.1-9.46,41.95-30.2,77.04-57.98,108.19-51.46,57.71-129.63,84.82-173.92,81.92Z"/><path class="ab" d="M2817.39,429.54c-108.75-8.08-201.77-83.72-230.46-190.92,115.72,.59,216.53,103.09,230.46,190.92Z"/><rect x="2502.75" y="405.69" width="13.22" height="12.81"/><rect x="2502.75" y="429.51" width="13.22" height="56.11"/><path d="M2553.64,405.69h8.11c0,23.27-16.51,42.11-36.91,42.11v-18.42c15.94,0,28.79-10.71,28.79-23.68Z"/><path d="M2515.98,459.12v-7.46c25.3,0,45.77,15.18,45.77,33.95h-20.03c0-14.66-11.64-26.49-25.75-26.49Z"/><path id="e" class="af" d="M2559.45,783.47c156.27,0,282.95-126.68,282.95-282.95s-126.68-282.95-282.95-282.95"/><path class="ab" d="M2564.51,406.67c54.26,0,98.24,43.98,98.24,98.24s-43.98,98.24-98.24,98.24"/><text class="as" transform="translate(2565.29 433.77) scale(1.06 1)"><tspan class="al" x="0" y="0">y</tspan><tspan x="19.72" y="0">o</tspan><tspan class="ap" x="40.83" y="0">k</tspan><tspan x="64.36" y="0">ushin </tspan><tspan x="0" y="46.67">a</tspan><tspan class="ap" x="21.35" y="46.67">ra</tspan><tspan x="60.78" y="46.67">té </tspan><tspan x="0" y="93.33">C</tspan><tspan class="y" x="26.83" y="93.33">l</tspan><tspan x="38.93" y="93.33">ub </tspan><tspan x="0" y="140">Gode</tspan><tspan class="ap" x="92.16" y="140">r</tspan><tspan x="110.83" y="140">ville</tspan></text><path d="M2462.37,677.39c-6.97-8.41-6.92-9.89,2.82-14.85,1.28-.65,2.78-.88,4.05-1.54,4.75-2.45,9.46-5.01,16.2-8.6-9.44-9.38-17.15-17.03-25.46-25.27,5.16-2.97,12.82-3.3,10.91-12.14-1.35-6.25-3.65-11.36-7.39-13.76-4.65,4.11-8.03,8.35-12.43,10.62-4.14,2.14-9.32,2.58-14.12,3.08-4.37,.46-8.84,0-13.27-.05,.53-5.46,1.06-10.91,1.58-16.37,.02-.19-.05-.38-.23-1.52-1.35,.42-2.66,.42-3.06,1.02-4.47,6.63-9.61,13-12.84,20.2-1.81,4.04-2.34,11.51,.07,13.85,3.08,3,10.17,4.2,14.71,3.03,14.58-3.77,14.44-4.33,14.04,10.49-.03,1.23,.07,2.5-.15,3.7-.87,4.66-3.26,7.9-8.31,8.63-3.37,.49-6.7,1.25-10.08,1.64-4.89,.56-7.76-2.77-6.69-7.67,.91-4.15,1.99-8.26,2.99-12.39-.73-.49-1.46-.99-2.19-1.48-2.26,2.61-4.75,5.05-6.69,7.87-1.61,2.33-1.91,6.17-3.98,7.47-5.55,3.48-3.46,6.86-1.28,10.93,2.99,5.57,7.03,8.37,13.67,7.29,5.3-.87,10.73-.91,16.07-1.57,5.78-.72,9.79,.89,12.44,6.55,2.75,5.9,6.04,11.64,9.82,16.95,10.88,15.26,7.13,32.21-10,40.19-3.5,1.63-10.18,1.38-12.71-.92-4.22-3.83-7.8-9.75-8.8-15.3-.94-5.24,11.96-10.96,19.44-8.92-2.41,3.73-4.7,7.26-7.36,11.37,11.49,.87,15.91-3.3,15.73-13.28-.15-8.31-6.76-17.85-14.73-20.81-7.96-2.97-13.19,1.93-17.8,7.09-6.34,7.09-12.49,14.39-18.15,22.02-5.91,7.97-4.78,11.87,2.81,18.15,11.13,9.21,21.88,18.89,32.93,28.21,5.22,4.4,10.51,8.81,16.23,12.5,3.21,2.07,7.37,2.67,13.12,4.61-1.39-4.77-1.42-7.8-2.94-9.52-6.29-7.17-4.84-14.73-.83-21.72,4.93-8.59,10.46-16.98,16.74-24.64,6.1-7.46,7.63-14.82,2.64-21.86-5.61-7.92-11.35-15.78-17.54-23.25Zm-16.62-45.89s-.03,0-.04,0c0,0-.06,0-.06,0,0,0,.02,0,.02,0,.01,0,.03,0,.04,0,0,0,.06,0,.06,0,0,0-.02,0-.02,0Z"/></g></g><g id="f"><path class="ag" d="M1427.31,195.34c28.1-10.62,58.1-14.62,88.05-13.84"/><path class="ag" d="M1515.35,747.4c-33.34-1.27-66.97-5.02-98.69-15.86-9.03-3.09-17.87-6.74-26.41-11.01"/><path class="ba" d="M1542.66,726.43c35.46-125.22,143.32-186.41,231.89-190.1-9.46,41.95-30.2,77.04-57.98,108.19-51.46,57.71-129.63,84.82-173.92,81.92Z"/><path class="ba" d="M1773.34,393.47c-108.75-8.08-201.77-83.72-230.46-190.92,115.72,.59,216.53,103.09,230.46,190.92Z"/><rect x="1458.7" y="369.62" width="13.22" height="12.81"/><rect x="1458.7" y="393.43" width="13.22" height="56.11"/><path d="M1509.59,369.62h8.11c0,23.27-16.51,42.11-36.91,42.11v-18.42c15.94,0,28.79-10.71,28.79-23.68Z"/><path d="M1471.92,423.05v-7.46c25.3,0,45.77,15.18,45.77,33.95h-20.03c0-14.66-11.64-26.49-25.75-26.49Z"/><path id="g" class="ag" d="M1515.4,747.4c156.27,0,282.95-126.68,282.95-282.95s-126.68-282.95-282.95-282.95"/><path class="s" d="M1520.46,370.6c54.26,0,98.24,43.98,98.24,98.24s-43.98,98.24-98.24,98.24"/><text class="as" transform="translate(1520.24 403.7) scale(1.06 1)"><tspan class="al" x="0" y="0">y</tspan><tspan x="19.72" y="0">o</tspan><tspan class="ap" x="40.83" y="0">k</tspan><tspan x="64.36" y="0">ushin </tspan><tspan x="0" y="46.67">a</tspan><tspan class="ap" x="21.35" y="46.67">ra</tspan><tspan x="60.78" y="46.67">té </tspan><tspan x="0" y="93.33">C</tspan><tspan class="y" x="26.83" y="93.33">l</tspan><tspan x="38.93" y="93.33">ub </tspan><tspan x="0" y="140">Gode</tspan><tspan class="ap" x="92.16" y="140">r</tspan><tspan x="110.83" y="140">ville</tspan></text><text class="aj" transform="translate(349.31 2417)"><tspan x="0" y="0">Lorem ipsum</tspan></text><text class="aj" transform="translate(455.42 2456.97)"><tspan x="0" y="0">Lorem ipsum</tspan></text><text class="aj" transform="translate(339.54 2392.34)"><tspan x="0" y="0">Lorem ipsum</tspan></text></g><g id="h"><rect x="1973" y="1547" width="1000" height="1000"/><g><path class="af" d="M1416.44,1188.51c28.1-10.62,58.1-14.62,88.05-13.84"/><path class="ag" d="M1364.52,1211.55c3.26-1.83,6.56-3.61,9.89-5.32"/><path class="ag" d="M1343.39,1224.98c3.5-2.45,7.05-4.83,10.65-7.12"/><path class="ag" d="M1317.44,1245.3c2.49-2.19,5.01-4.34,7.57-6.44"/><path class="ag" d="M1294.75,1648.41c-4.79-5.2-9.34-10.62-13.66-16.21"/><path class="af" d="M1504.49,1740.57c-33.34-1.27-66.97-5.02-98.69-15.86-9.03-3.09-17.87-6.74-26.41-11.01"/><path class="t" d="M1475.53,1568.08c-6.78-4.67-13.79-9.18-21.21-12.67-17.78-8.37-35.91-15.99-53.75-24.24-2.18-1.01-3.44-3.98-5.13-6.03,2.86-1.14,5.67-2.97,8.61-3.24,4.09-.38,8.71,1.64,12.32,.38,4.29-1.5,8.09-5.08,11.22-8.56,.53-.59-2.91-5.68-5.32-7.78-2.87-2.5-6.68-3.88-9.93-5.98-3.95-2.54-7.74-5.31-11.94-8.22,7.69-5.66,52.36-3.15,58.19,3.38-5.97,5.56-11.93,11.1-18.71,17.41,11.07-.7,20.08-2.36,28.85-1.53,8.69,.82,17.14,4.15,27.34,6.82-1.56-4.95-2.37-9.7-4.46-13.8-6.77-13.3-15.32-24.34-32.33-24.8-9.24-.25-18.47-1.6-27.65-2.88-2.18-.3-5.9-2.29-5.9-3.52-.06-11.65-3.69-23.73,2.37-34.81,2.99-5.47,3.22-10.32,.32-15.76-1.57-2.95-1.71-6.78-3.6-9.41-2.78-3.86-4.99-9.3-11.65-7.82-6.96,1.54-13.95,2.91-22.53,4.68,.9-6.99,1.6-14.28,2.92-21.45,.36-1.96,2.24-4.5,4.03-5.19,8.78-3.4,18.05-5.63,26.55-9.58,4.41-2.05,8.96-6.18,10.9-10.51,2.12-4.73-.05-9.97-5.78-12.63-4.62-2.15-9.2-4.53-13.41-7.39-3.65-2.49-6.75-5.79-10.1-8.73,4.02-2.2,7.83-5.03,12.1-6.46,8.93-2.98,18.21-4.89,27.12-7.92,4.05-1.38,6.4-4.15,4.22-9.66-3.63-9.15-8.63-15.73-19.78-16.07,8.67-6.09,17.22-11.56,25.99-16.67,10.24-5.97,10.88-8.5,3.66-17.75-2.1-2.69-4.83-5.05-6.33-8.03-2.89-5.73-8.08-6.46-12.99-5.64-6.35,1.06-12.51,3.48-18.62,5.69-4.1,1.49-7.95,3.63-11.92,5.48-.58-.58-1.15-1.15-1.73-1.73,14.49-14.78,15.79-38.82,38.8-49.43-7.05-7.88-13.06-15.14-19.66-21.82-5.09-5.16-9.23-5.42-11.68-.65,2.22,2.55,1.42,7.45-2.38,8.32-.26,.75-.67,1.44-1.26,1.98-2.97,6.57-7.54,11.89-12.9,16.95-7.57,7.15-14.39,15.12-22.24,21.93-9.45,8.2-19.63,15.54-31.09,24.51,0-5.03-.74-7.56,.12-9.26,4.53-8.89,9-18.61,18.55-22.69,8.12-3.47,12.21-7.95,12.82-15.12-1.82-1.8-1.93-5.05-.33-7.03-.89-5.65-2.91-8.82-7.59-11.78-7.58-4.79-15.01-9.99-21.74-15.89-3.39-2.97-5.09-7.86-7.61-11.97-12.67,10.29-14.67,26.59-5.68,40.75,2.23,3.51,3.67,7.51,5.55,11.23,.5,.56,.86,1.24,1.07,1.97,.07,.12,.13,.24,.2,.36,3.81,6.39-1.26,10.38-4.26,14.16-1.15,1.45-6.52,.32-9.6-.73-.29-.1-.58-.22-.86-.34-1.75,.05-3.43-.94-4.44-2.37-1.61-.99-3.22-2.02-4.92-2.8-5.5-2.53-10.55-7.29-17.57-4.5,3.91,6.53,6.76,11.3,9.23,14.99,.16,.2,.3,.41,.43,.64,6.47,9.48,10.49,11.49,24.61,18.52-4.57,5.51-8.78,11.08-13.49,16.18-9.54,10.34-19.47,20.31-28.93,30.71-1.98,2.18-3.57,5.48-3.78,8.38-1.3,17.64-2.26,35.31-3.1,52.98-.28,5.95,7.5,14.27,13.06,14.58,4.85,.27,14.94-8.96,15.1-14.15,.59-18.25,1.4-36.51,1.36-54.77-.02-7.78,4.35-11.03,11.45-15.6,2.44,67.37-3.16,132.93-3.26,198.46-24.69,4.84-48.46,6.04-62.43-23.03-5.03,11.25-3.43,20.47-2.3,29.98,2.15,18.06,17.74,26.39,33.84,22.15,7.48-1.97,14.86-4.34,22.32-6.38,2.41-.66,4.95-.86,7.35-1.25,2.34,16.31,2.12,32.42,14.29,45.86,1.24-2.86,2.38-4.52,2.66-6.32,2.11-13.44,4.53-26.85,5.8-40.38,.53-5.66,2.19-9.5,7.29-11.4,8.15-3.05,16.38-5.9,24.7-8.47,3.49-1.08,7.27-1.2,12.52-2-5.23,6.28-9.28,10.89-13.03,15.74-3.2,4.14-3.2,7.69,2.26,10.38,2.83,1.4,5.13,3.87,7.68,5.86-.2,.52-.41,1.04-.61,1.55h-14.97c-.17,.57-.33,1.14-.5,1.72,2.44,1.42,4.88,2.84,8.22,4.79-20.8,21.82-41.17,43.2-63.01,66.12-1.27-10.33-2.28-18.48-3.28-26.63-.63-.15-1.26-.3-1.88-.44-1.25,2.14-2.95,4.15-3.68,6.46-2.68,8.48-7.72,14.77-14.97,20.07-5.81,4.25-10.9,9.79-15.32,15.51-1.76,2.28-1.93,6.91-1.02,9.93,.62,2.07,1.28,4.14,1.95,6.2,1.05,1,1.55,2.46,1.53,3.91,.8,1.04,1.16,2.41,1.06,3.73,1.97,5.67,4.05,11.31,6.18,16.92,.95,2.5,3.15,4.52,4.78,6.77,1.64-1.5,3.63-2.79,5.17-4.35,.1-.58,.3-1.14,.6-1.66,.27-.34,.53-.69,.8-1.03,.08-.08,.18-.15,.26-.23,.23-1.58,1.12-3.05,2.67-3.75,9.08-15.35,18.04-30.77,26.79-46.31,14.53-25.8,34.07-47.06,57.64-64.8,3.97-2.98,8.03-4.07,12.02-.87,11.8,9.48,23.59,18.99,35.03,28.91,15.27,13.24,23.32,29.35,17.17,51.3,3.02-.66,5.06-.87,6.92-1.56,12.75-4.71,20.14-14.97,26.29-26.22,5.07-9.28,3.79-15.03-4.66-20.85Zm-65.49-299.86c.16-2.15,6.45-3.83,9.91-5.72,1.17,2.98,3.88,6.36,3.23,8.86-2.2,8.45-5.6,16.58-8.54,24.83-1.24-.16-2.47-.32-3.71-.48-.46-9.18-1.59-18.41-.89-27.5Zm-57.28-72.2c2.5,.49,4.69,2.68,6.83,4.93,1.25,.5,2.1,1.46,2.56,2.61,.11,.1,.22,.21,.33,.31,.64,.59,.79,1.72,1.39,3.14-.58,.29-1.17,.59-1.76,.88-.69,1.62-2.18,2.88-4.47,2.88-.38,0-.74-.04-1.07-.1-.88,.44-1.76,.88-2.63,1.32-.62-.96-1.15-2.03-1.57-3.15-1-1.16-1.39-2.79-1.17-4.32-.81-4.65-.17-8.84,1.58-8.49Zm58.76,279.96c-2.79,.19-8.13-2.49-8.29-4.29-.54-6.24,.7-12.62,1.26-18.95,1.39-.25,2.77-.5,4.16-.75,2.98,5.85,6.45,11.53,8.56,17.68,.49,1.43-3.54,6.17-5.7,6.31Zm-7.67-60.22c1.91-.18,5.07,1.55,5.9,3.26,2.97,6.1,5.18,12.57,7.68,18.9l-2.57,2.73c-8.98-6.75-17.28-17.87-29.46-4.15,1.3-8.23,12.36-20.15,18.45-20.73Zm-38.56-47.29c5.58-6.85,9.72-11.92,14.67-18.01,3.23,5.17,5.94,9.5,9.82,15.7-8.78,.83-15.42,1.45-24.5,2.3Zm6.09,55.83c-3.93,11.58-8.5,22.99-7.21,35.47,.61,5.9,2.5,11.68,4.11,18.84-7.68,3.11-15.69,6.36-24.16,9.78-.61-2.88-.88-3.59-.89-4.3-.52-66.86-1.08-133.72-1.46-200.58-.05-8.08,4.56-13.56,10.96-18.55,16.94-13.21,33.32-27.14,49.97-40.72,1.85-1.51,3.99-2.66,5.93-3.94,5.44,6.62,1.4,21.07-7.65,25.34-9.95,4.69-15.86,11.64-17.25,22.62-.12-.95,0-2.01-.39-2.83-1.71-3.59-4.48-10.35-5.23-10.14-5.39,1.51-10.26,4.6-11.05,11.1-.56,4.6-1.2,9.21-1.45,13.83-.3,5.59-1.12,11.32,5.93,14.27,2.18,.91,3.4,4.13,3.95,7.71-3.9-1.12-7.81-2.24-12.02-3.45-.7,2.22-1.08,3.59-1.55,4.92-1.88,5.27-6.77,10.42-1.83,16.17,5.52,6.43,13.05,7.17,20.93,5.97,2.57-.39,5.12-.95,8.89,.15-6.8,8.4-13.64,16.77-20.37,25.23-5.31,6.67-10.53,13.41-15.71,20.18-3.63,4.75-1.67,8.79,2.97,10.51,7.41,2.76,15.23,4.38,24.95,7.05-3.33,11.5-6.37,23.6-10.37,35.38Zm19.22,43.33c-.33,.78-1.81,1.09-2.75,1.62-.85-.27-1.7-.54-2.55-.81,.84-7.71,1.23-15.52,2.85-23.07,.41-1.92,4.73-3,7.25-4.47,.78,2.82,2.74,5.96,2.1,8.41-1.65,6.28-4.4,12.29-6.9,18.33Z"/><path class="ab" d="M1531.8,1719.6c35.46-125.22,143.32-186.41,231.89-190.1-9.46,41.95-30.2,77.04-57.98,108.19-51.46,57.71-129.63,84.82-173.92,81.92Z"/><path class="ab" d="M1762.47,1386.64c-108.75-8.08-201.77-83.72-230.46-190.92,115.72,.59,216.53,103.09,230.46,190.92Z"/><rect class="t" x="1447.84" y="1362.79" width="13.22" height="12.81"/><rect class="t" x="1447.84" y="1386.6" width="13.22" height="56.11"/><path class="t" d="M1498.73,1362.79h8.11c0,23.27-16.51,42.11-36.91,42.11v-18.42c15.94,0,28.79-10.71,28.79-23.68Z"/><path class="t" d="M1461.06,1416.22v-7.46c25.3,0,45.77,15.18,45.77,33.95h-20.03c0-14.66-11.64-26.49-25.75-26.49Z"/><path id="i" class="af" d="M1504.54,1740.57c156.27,0,282.95-126.68,282.95-282.95s-126.68-282.95-282.95-282.95"/><path class="ab" d="M1509.6,1363.77c54.26,0,98.24,43.98,98.24,98.24,0,54.26-43.98,98.24-98.24,98.24"/><text class="x" transform="translate(1510.38 1390.86) scale(1.06 1)"><tspan class="al" x="0" y="0">y</tspan><tspan x="19.72" y="0">o</tspan><tspan class="ap" x="40.83" y="0">k</tspan><tspan x="64.36" y="0">ushin </tspan><tspan x="0" y="46.67">a</tspan><tspan class="ap" x="21.35" y="46.67">ra</tspan><tspan x="60.78" y="46.67">té </tspan><tspan x="0" y="93.33">C</tspan><tspan class="y" x="26.83" y="93.33">l</tspan><tspan x="38.93" y="93.33">ub </tspan><tspan x="0" y="140">Gode</tspan><tspan class="ap" x="92.16" y="140">r</tspan><tspan x="110.83" y="140">ville</tspan></text><path class="t" d="M1407.46,1634.48c-6.97-8.41-6.92-9.89,2.82-14.85,1.28-.65,2.78-.88,4.05-1.54,4.75-2.45,9.46-5.01,16.2-8.6-9.44-9.38-17.15-17.03-25.46-25.27,5.16-2.97,12.82-3.3,10.91-12.14-1.35-6.25-3.65-11.36-7.39-13.76-4.65,4.11-8.03,8.35-12.43,10.62-4.14,2.14-9.32,2.58-14.12,3.08-4.37,.46-8.84,0-13.27-.05,.53-5.46,1.06-10.91,1.58-16.37,.02-.19-.05-.38-.23-1.52-1.35,.42-2.66,.42-3.06,1.02-4.47,6.63-9.61,13-12.84,20.2-1.81,4.04-2.34,11.51,.07,13.85,3.08,3,10.17,4.2,14.71,3.03,14.58-3.77,14.44-4.33,14.04,10.49-.03,1.23,.07,2.5-.15,3.7-.87,4.66-3.26,7.9-8.31,8.63-3.37,.49-6.7,1.25-10.08,1.64-4.89,.56-7.76-2.77-6.69-7.67,.91-4.15,1.99-8.26,2.99-12.39-.73-.49-1.46-.99-2.19-1.48-2.26,2.61-4.75,5.05-6.69,7.87-1.61,2.33-1.91,6.17-3.98,7.47-5.55,3.48-3.46,6.86-1.28,10.93,2.99,5.57,7.03,8.37,13.67,7.29,5.3-.87,10.73-.91,16.07-1.57,5.78-.72,9.79,.89,12.44,6.55,2.75,5.9,6.04,11.64,9.82,16.95,10.88,15.26,7.13,32.21-10,40.19-3.5,1.63-10.18,1.38-12.71-.92-4.22-3.83-7.8-9.75-8.8-15.3-.94-5.24,11.96-10.96,19.44-8.92-2.41,3.73-4.7,7.26-7.36,11.37,11.49,.87,15.91-3.3,15.73-13.28-.15-8.31-6.76-17.85-14.73-20.81-7.96-2.97-13.19,1.93-17.8,7.09-6.34,7.09-12.49,14.39-18.15,22.02-5.91,7.97-4.78,11.87,2.81,18.15,11.13,9.21,21.88,18.89,32.93,28.21,5.22,4.4,10.51,8.81,16.23,12.5,3.21,2.07,7.37,2.67,13.12,4.61-1.39-4.77-1.42-7.8-2.94-9.52-6.29-7.17-4.84-14.73-.83-21.72,4.93-8.59,10.46-16.98,16.74-24.64,6.1-7.46,7.63-14.82,2.64-21.86-5.61-7.92-11.35-15.78-17.54-23.25Zm-16.62-45.89s-.03,0-.04,0c0,0-.06,0-.06,0,0,0,.02,0,.02,0,.01,0,.03,0,.04,0,0,0,.06,0,.06,0,0,0-.02,0-.02,0Z"/></g></g><g id="j"><rect class="ar" x="1" y="2040" width="1000" height="1000"/><g id="k"><g><g><path class="ai" d="M2373.65,2486.69c-22.57,.16-43.52,19.09-43.77,45.35-.23,24.03,18.95,45.44,44.21,45.67"/><path class="ai" d="M2363.14,2654.26c-16.09-58.39-65.04-86.93-105.24-88.65,4.29,19.56,13.71,35.92,26.31,50.45,23.35,26.91,58.83,39.55,78.93,38.2Z"/><path class="ai" d="M2258.46,2498.99c49.35-3.77,91.57-39.04,104.59-89.03-52.52,.28-98.26,48.07-104.59,89.03Z"/><path class="ae" d="M2373.04,2660.1c-69.05,0-125.03-57.52-125.03-128.47,0-70.95,55.98-128.47,125.03-128.47"/></g><path d="M2355.66,2423.72c3.44-1.4,5.92,.99,8.61,2.27,1.72,.81,3.24,2.15,5.01,2.77,1.51,.53,4.14,1.1,4.7,.37,1.47-1.91,3.96-3.92,2.09-7.13-1.27-2.18-2.02-4.69-3.34-6.84-4.41-7.14-3.43-15.34,2.78-20.53,1.23,2.07,2.07,4.53,3.73,6.03,3.3,2.97,6.94,5.59,10.65,8,2.34,1.52,3.32,3.15,3.75,6.1,.81,5.69-1.05,8.75-6.15,10.99-4.68,2.06-6.87,6.95-9.09,11.43-.43,.86-.06,2.13-.06,4.67,5.62-4.51,10.61-8.22,15.24-12.34,3.85-3.43,7.19-7.45,10.9-11.05,3.46-3.36,6.26-6.94,7.46-11.89,1.02-4.19,3.36-4.64,6.37-1.5,3.23,3.37,6.18,7.02,9.63,10.99-11.28,5.34-11.92,17.45-19.02,24.9l.85,.87c1.94-.93,3.83-2.01,5.84-2.76,2.99-1.12,6.01-2.33,9.13-2.87,2.41-.41,4.95-.05,6.37,2.84,.74,1.5,2.07,2.69,3.1,4.05,3.54,4.66,3.22,5.93-1.79,8.94-4.29,2.57-8.49,5.33-12.74,8.4,5.47,.17,7.92,3.48,9.69,8.09,1.07,2.78-.08,4.17-2.07,4.87-4.37,1.52-8.92,2.49-13.29,3.99-2.1,.72-3.96,2.15-5.93,3.25,1.64,1.48,3.16,3.14,4.95,4.39,2.06,1.44,4.31,2.64,6.57,3.72,2.81,1.34,3.87,3.98,2.83,6.36-.95,2.18-3.18,4.26-5.34,5.3-4.16,1.99-8.71,3.11-13.01,4.83-.88,.35-1.8,1.63-1.98,2.61-.65,3.61-.99,7.29-1.43,10.8,4.21-.89,7.64-1.58,11.05-2.36,3.26-.74,4.34,2,5.71,3.94,.93,1.32,1,3.25,1.77,4.74,1.42,2.74,1.31,5.19-.16,7.94-2.97,5.58-1.19,11.66-1.16,17.53,0,.62,1.82,1.62,2.89,1.77,4.5,.64,9.02,1.32,13.55,1.45,8.34,.23,12.53,5.79,15.85,12.49,1.02,2.07,1.42,4.46,2.19,6.95-5-1.34-9.14-3.02-13.4-3.43-4.3-.42-8.72,.42-14.14,.77,3.32-3.18,6.24-5.97,9.17-8.77-2.86-3.29-24.75-4.56-28.52-1.7,2.06,1.46,3.92,2.86,5.85,4.14,1.6,1.05,3.46,1.75,4.87,3.01,1.18,1.06,2.87,3.62,2.61,3.92-1.53,1.75-3.4,3.55-5.5,4.31-1.77,.64-4.03-.38-6.04-.19-1.44,.14-2.82,1.06-4.22,1.63,.83,1.04,1.45,2.53,2.52,3.04,8.75,4.15,17.63,7.99,26.35,12.21,3.64,1.76,7.08,4.03,10.4,6.38,4.14,2.93,4.77,5.83,2.28,10.5-3.01,5.67-6.64,10.83-12.89,13.2-.91,.35-1.91,.45-3.39,.78,3.01-11.06-.93-19.17-8.42-25.84-5.61-4.99-11.38-9.78-17.17-14.56-1.95-1.61-3.95-1.07-5.89,.44-11.55,8.93-21.13,19.64-28.25,32.64-4.73,8.64-9.58,17.2-14.51,25.73-.73,1.27-2.17,2.11-3.28,3.15-.8-1.13-1.88-2.15-2.34-3.41-1.89-5.11-3.73-10.26-5.25-15.49-.44-1.52-.36-3.86,.5-5,2.17-2.88,4.66-5.67,7.51-7.81,3.55-2.67,6.02-5.84,7.34-10.11,.36-1.16,1.19-2.17,1.8-3.25,.31,.07,.62,.15,.92,.22,.49,4.11,.98,8.21,1.61,13.41,10.71-11.54,20.69-22.31,30.89-33.3-1.64-.98-2.83-1.7-4.03-2.41l.25-.86h7.34l.3-.78c-1.25-1-2.37-2.25-3.76-2.95-2.67-1.35-2.67-3.14-1.11-5.23,1.83-2.44,3.82-4.76,6.38-7.93-2.57,.4-4.43,.47-6.14,1.01-4.07,1.29-8.11,2.73-12.11,4.26-2.5,.96-3.31,2.89-3.57,5.74-.62,6.81-1.81,13.57-2.84,20.34-.14,.9-.7,1.74-1.3,3.18-5.96-6.77-5.85-14.88-7-23.1-1.17,.2-2.42,.3-3.6,.63-3.66,1.03-7.27,2.22-10.94,3.22-7.9,2.13-15.54-2.06-16.59-11.16-.55-4.79-1.34-9.44,1.13-15.1,6.85,14.65,18.5,14.04,30.6,11.6,.05-33.01,2.8-66.03,1.6-99.96-3.48,2.3-5.62,3.94-5.61,7.86,.02,9.19-.38,18.39-.66,27.58-.08,2.61-5.02,7.26-7.4,7.13-2.72-.16-6.54-4.35-6.4-7.34,.41-8.9,.88-17.8,1.52-26.68,.1-1.46,.88-3.12,1.85-4.22,4.64-5.24,9.51-10.26,14.18-15.47,2.31-2.57,4.37-5.37,6.61-8.15q-9.68-4.95-16.8-17.2Zm34.07,129.63c-.79-3.61-1.72-6.52-2.02-9.49-.63-6.29,1.61-12.03,3.53-17.86,1.96-5.93,3.45-12.03,5.08-17.82-4.76-1.34-8.6-2.16-12.23-3.55-2.27-.87-3.24-2.9-1.45-5.29,2.54-3.41,5.1-6.8,7.7-10.16,3.3-4.26,6.65-8.47,9.98-12.71-1.85-.55-3.1-.27-4.36-.07-3.86,.61-7.55,.23-10.26-3-2.42-2.89-.02-5.49,.9-8.15,.23-.67,.42-1.36,.76-2.48,2.06,.61,3.98,1.17,5.89,1.74-.27-1.8-.87-3.42-1.94-3.88-3.46-1.49-3.06-4.37-2.91-7.19,.12-2.33,.44-4.65,.71-6.97,.39-3.28,2.77-4.83,5.42-5.59,.37-.11,1.73,3.3,2.57,5.11,.19,.41,.14,.95,.19,1.43,.68-5.53,3.58-9.03,8.46-11.39,4.43-2.15,6.41-9.43,3.75-12.76-.95,.64-2,1.22-2.91,1.98-8.16,6.84-16.19,13.86-24.49,20.51-3.13,2.51-5.39,5.27-5.37,9.34,.18,33.68,.46,67.35,.72,101.03,0,.36,.14,.72,.43,2.17,4.15-1.73,8.08-3.36,11.84-4.93Zm22.83-19.12l1.26-1.37c-1.22-3.19-2.31-6.45-3.76-9.52-.41-.86-1.96-1.73-2.89-1.64-2.98,.29-8.4,6.3-9.04,10.44,5.97-6.91,10.04-1.31,14.44,2.09Zm-1.93-73l1.82,.24c1.44-4.16,3.11-8.25,4.19-12.51,.32-1.26-1.01-2.96-1.58-4.47-1.7,.95-4.78,1.8-4.86,2.88-.34,4.58,.21,9.23,.44,13.85Zm-1.12,78.71c-.68,.13-1.36,.25-2.04,.38-.28,3.19-.88,6.41-.62,9.55,.08,.91,2.69,2.26,4.06,2.16,1.06-.07,3.03-2.46,2.79-3.18-1.04-3.1-2.74-5.96-4.2-8.9Zm-11.44,8.28l1.25,.41c.46-.27,1.19-.42,1.35-.81,1.23-3.04,2.57-6.07,3.38-9.23,.32-1.23-.65-2.81-1.03-4.24-1.24,.74-3.35,1.28-3.56,2.25-.79,3.8-.98,7.73-1.4,11.62Zm2.19-51.51c-1.9-3.12-3.23-5.31-4.81-7.91-2.43,3.06-4.46,5.62-7.19,9.07,4.45-.43,7.7-.74,12.01-1.16Zm-17.58-77.66c1.61-.83,3.25-1.67,4.87-2.5-.3-.71-.37-1.28-.68-1.58-1.53-1.44-2.98-3.6-4.76-3.96-1.33-.27-1.36,4.98,.57,8.04Z"/><path d="M2390.82,2594.89c.09,.57,.12,.67,.11,.76-.26,2.75-.51,5.51-.77,8.26,2.17,.03,4.35,.26,6.49,.03,2.35-.25,4.88-.48,6.91-1.56,2.15-1.15,3.81-3.28,6.08-5.36,1.83,1.21,2.95,3.79,3.61,6.94,.93,4.46-2.81,4.63-5.34,6.13,4.06,4.16,7.83,8.02,12.45,12.75-3.3,1.81-5.6,3.1-7.92,4.34-.62,.33-1.36,.45-1.98,.78-4.76,2.5-4.79,3.25-1.38,7.5,3.03,3.77,5.83,7.74,8.58,11.73,2.44,3.55,1.69,7.27-1.29,11.03-3.07,3.87-5.77,8.1-8.18,12.44-1.96,3.52-2.67,7.34,.4,10.96,.74,.87,.75,2.4,1.44,4.81-2.81-.98-4.84-1.28-6.41-2.33-2.8-1.86-5.38-4.09-7.94-6.31-5.4-4.7-10.66-9.58-16.1-14.23-3.71-3.17-4.26-5.13-1.37-9.16,2.77-3.85,5.78-7.54,8.88-11.11,2.25-2.6,4.81-5.07,8.7-3.58,3.89,1.5,7.13,6.31,7.2,10.5,.09,5.04-2.07,7.14-7.69,6.7,1.3-2.07,2.42-3.85,3.6-5.74-3.66-1.03-9.97,1.86-9.51,4.5,.49,2.8,2.24,5.79,4.3,7.72,1.24,1.16,4.51,1.29,6.22,.46,8.37-4.03,10.21-12.58,4.89-20.28-1.85-2.68-3.46-5.58-4.8-8.55-1.29-2.86-3.25-3.67-6.08-3.31-2.61,.34-5.27,.36-7.86,.79-3.24,.55-5.22-.87-6.68-3.68-1.07-2.05-2.09-3.76,.63-5.52,1.01-.65,1.16-2.59,1.94-3.77,.95-1.42,2.17-2.66,3.27-3.97l1.07,.75c-.49,2.08-1.02,4.16-1.46,6.25-.53,2.47,.88,4.15,3.27,3.87,1.65-.2,3.28-.58,4.93-.83,2.47-.37,3.64-2.01,4.07-4.36,.11-.61,.06-1.24,.07-1.87,.2-7.48,.27-7.2-6.86-5.29-2.22,.59-5.69-.01-7.2-1.53-1.18-1.18-.92-4.95-.03-6.99,1.58-3.64,4.09-6.85,6.28-10.19,.2-.3,.84-.3,1.5-.51Z"/><g><path class="ai" d="M2706.35,2490.3c22.57,.16,43.52,19.09,43.77,45.35,.23,24.03-18.95,45.44-44.21,45.67"/><path class="ai" d="M2716.86,2657.87c16.09-58.39,65.04-86.93,105.24-88.65-4.29,19.56-13.71,35.92-26.31,50.45-23.35,26.91-58.83,39.55-78.93,38.2Z"/><path class="ai" d="M2821.54,2502.6c-49.35-3.77-91.57-39.04-104.59-89.03,52.52,.28,98.26,48.07,104.59,89.03Z"/><path class="ae" d="M2706.96,2663.7c69.05,0,125.03-57.52,125.03-128.47s-55.98-128.47-125.03-128.47"/></g><text class="at" transform="translate(2452.83 2447.92) scale(1.03 1)"><tspan class="bb" x="0" y="0">K</tspan><tspan class="aq" x="36.18" y="0">y</tspan><tspan class="ao" x="65.12" y="0">o</tspan><tspan class="ah" x="96.11" y="0">k</tspan><tspan x="130.64" y="0">ushin </tspan><tspan class="aw" x="0" y="68.49">K</tspan><tspan class="av" x="40.98" y="68.49">a</tspan><tspan class="ah" x="72.31" y="68.49">ra</tspan><tspan x="130.18" y="68.49">té </tspan><tspan x="0" y="136.97">C</tspan><tspan class="bc" x="39.38" y="136.97">l</tspan><tspan x="57.13" y="136.97">ub </tspan><tspan x="0" y="205.46">Gode</tspan><tspan class="ah" x="135.26" y="205.46">r</tspan><tspan x="162.65" y="205.46">ville</tspan></text><g><rect x="2704.69" y="2459.13" width="19.72" height="19.63"/><rect x="2704.69" y="2495.62" width="19.72" height="85.97"/><path d="M2780.57,2459.13h12.1c0,35.66-24.61,64.52-55.03,64.52v-28.23c23.76,0,42.94-16.41,42.94-36.29Z"/><path d="M2724.41,2541v-11.43c37.73,0,68.26,23.26,68.26,52.02h-29.87c0-22.46-17.36-40.58-38.39-40.58Z"/></g></g></g><g><path class="ag" d="M1314.79,2122.03c28.1-10.62,58.1-14.62,88.05-13.84"/><path class="ag" d="M1262.87,2145.07c3.26-1.83,6.56-3.61,9.89-5.32"/><path class="ag" d="M1241.74,2158.5c3.5-2.45,7.05-4.83,10.65-7.12"/><path class="ag" d="M1215.79,2178.83c2.49-2.19,5.01-4.34,7.57-6.44"/><path class="ag" d="M1193.09,2581.94c-4.79-5.2-9.34-10.62-13.66-16.21"/><path class="ag" d="M1402.84,2674.09c-33.34-1.27-66.97-5.02-98.69-15.86-9.03-3.09-17.87-6.74-26.41-11.01"/><path class="t" d="M1373.88,2501.6c-6.78-4.67-13.79-9.18-21.21-12.67-17.78-8.37-35.91-15.99-53.75-24.24-2.18-1.01-3.44-3.98-5.13-6.03,2.86-1.14,5.67-2.97,8.61-3.24,4.09-.38,8.71,1.64,12.32,.38,4.29-1.5,8.09-5.08,11.22-8.56,.53-.59-2.91-5.68-5.32-7.78-2.87-2.5-6.68-3.88-9.93-5.98-3.95-2.54-7.74-5.31-11.94-8.22,7.69-5.66,52.36-3.15,58.19,3.38-5.97,5.56-11.93,11.1-18.71,17.41,11.07-.7,20.08-2.36,28.85-1.53,8.69,.82,17.14,4.15,27.34,6.82-1.56-4.95-2.37-9.7-4.46-13.8-6.77-13.3-15.32-24.34-32.33-24.8-9.24-.25-18.47-1.6-27.65-2.88-2.18-.3-5.9-2.29-5.9-3.52-.06-11.65-3.69-23.73,2.37-34.81,2.99-5.47,3.22-10.32,.32-15.76-1.57-2.95-1.71-6.78-3.6-9.41-2.78-3.86-4.99-9.3-11.65-7.82-6.96,1.54-13.95,2.91-22.53,4.68,.9-6.99,1.6-14.28,2.92-21.45,.36-1.96,2.24-4.5,4.03-5.19,8.78-3.4,18.05-5.63,26.55-9.58,4.41-2.05,8.96-6.18,10.9-10.51,2.12-4.73-.05-9.97-5.78-12.63-4.62-2.15-9.2-4.53-13.41-7.39-3.65-2.49-6.75-5.79-10.1-8.73,4.02-2.2,7.83-5.03,12.1-6.46,8.93-2.98,18.21-4.89,27.12-7.92,4.05-1.38,6.4-4.15,4.22-9.66-3.63-9.15-8.63-15.73-19.78-16.07,8.67-6.09,17.22-11.56,25.99-16.67,10.24-5.97,10.88-8.5,3.66-17.75-2.1-2.69-4.83-5.05-6.33-8.03-2.89-5.73-8.08-6.46-12.99-5.64-6.35,1.06-12.51,3.48-18.62,5.69-4.1,1.49-7.95,3.63-11.92,5.48-.58-.58-1.15-1.15-1.73-1.73,14.49-14.78,15.79-38.82,38.8-49.43-7.05-7.88-13.06-15.14-19.66-21.82-5.09-5.16-9.23-5.42-11.68-.65,2.22,2.55,1.42,7.45-2.38,8.32-.26,.75-.67,1.44-1.26,1.98-2.97,6.57-7.54,11.89-12.9,16.95-7.57,7.15-14.39,15.12-22.24,21.93-9.45,8.2-19.63,15.54-31.09,24.51,0-5.03-.74-7.56,.12-9.26,4.53-8.89,9-18.61,18.55-22.69,8.12-3.47,12.21-7.95,12.82-15.12-1.82-1.8-1.93-5.05-.33-7.03-.89-5.65-2.91-8.82-7.59-11.78-7.58-4.79-15.01-9.99-21.74-15.89-3.39-2.97-5.09-7.86-7.61-11.97-12.67,10.29-14.67,26.59-5.68,40.75,2.23,3.51,3.67,7.51,5.55,11.23,.5,.56,.86,1.24,1.07,1.97,.07,.12,.13,.24,.2,.36,3.81,6.39-1.26,10.38-4.26,14.16-1.15,1.45-6.52,.32-9.6-.73-.29-.1-.58-.22-.86-.34-1.75,.05-3.43-.94-4.44-2.37-1.61-.99-3.22-2.02-4.92-2.8-5.5-2.53-10.55-7.29-17.57-4.5,3.91,6.53,6.76,11.3,9.23,14.99,.16,.2,.3,.41,.43,.64,6.47,9.48,10.49,11.49,24.61,18.52-4.57,5.51-8.78,11.08-13.49,16.18-9.54,10.34-19.47,20.31-28.93,30.71-1.98,2.18-3.57,5.48-3.78,8.38-1.3,17.64-2.26,35.31-3.1,52.98-.28,5.95,7.5,14.27,13.06,14.58,4.85,.27,14.94-8.96,15.1-14.15,.59-18.25,1.4-36.51,1.36-54.77-.02-7.78,4.35-11.03,11.45-15.6,2.44,67.37-3.16,132.93-3.26,198.46-24.69,4.84-48.46,6.04-62.43-23.03-5.03,11.25-3.43,20.47-2.3,29.98,2.15,18.06,17.74,26.39,33.84,22.15,7.48-1.97,14.86-4.34,22.32-6.38,2.41-.66,4.95-.86,7.35-1.25,2.34,16.31,2.12,32.42,14.29,45.86,1.24-2.86,2.38-4.52,2.66-6.32,2.11-13.44,4.53-26.85,5.8-40.38,.53-5.66,2.19-9.5,7.29-11.4,8.15-3.05,16.38-5.9,24.7-8.47,3.49-1.08,7.27-1.2,12.52-2-5.23,6.28-9.28,10.89-13.03,15.74-3.2,4.14-3.2,7.69,2.26,10.38,2.83,1.4,5.13,3.87,7.68,5.86-.2,.52-.41,1.04-.61,1.55h-14.97c-.17,.57-.33,1.14-.5,1.72,2.44,1.42,4.88,2.84,8.22,4.79-20.8,21.82-41.17,43.2-63.01,66.12-1.27-10.33-2.28-18.48-3.28-26.63-.63-.15-1.26-.3-1.88-.44-1.25,2.14-2.95,4.15-3.68,6.46-2.68,8.48-7.72,14.77-14.97,20.07-5.81,4.25-10.9,9.79-15.32,15.51-1.76,2.28-1.93,6.91-1.02,9.93,.62,2.07,1.28,4.14,1.95,6.2,1.05,1,1.55,2.46,1.53,3.91,.8,1.04,1.16,2.41,1.06,3.73,1.97,5.67,4.05,11.31,6.18,16.92,.95,2.5,3.15,4.52,4.78,6.77,1.64-1.5,3.63-2.79,5.17-4.35,.1-.58,.3-1.14,.6-1.66,.27-.34,.53-.69,.8-1.03,.08-.08,.18-.15,.26-.23,.23-1.58,1.12-3.05,2.67-3.75,9.08-15.35,18.04-30.77,26.79-46.31,14.53-25.8,34.07-47.06,57.64-64.8,3.97-2.98,8.03-4.07,12.02-.87,11.8,9.48,23.59,18.99,35.03,28.91,15.27,13.24,23.32,29.35,17.17,51.3,3.02-.66,5.06-.87,6.92-1.56,12.75-4.71,20.14-14.97,26.29-26.22,5.07-9.28,3.79-15.03-4.66-20.85Zm-65.49-299.86c.16-2.15,6.45-3.83,9.91-5.72,1.17,2.98,3.88,6.36,3.23,8.86-2.2,8.45-5.6,16.58-8.54,24.83-1.24-.16-2.47-.32-3.71-.48-.46-9.18-1.59-18.41-.89-27.5Zm-57.28-72.2c2.5,.49,4.69,2.68,6.83,4.93,1.25,.5,2.1,1.46,2.56,2.61,.11,.1,.22,.21,.33,.31,.64,.59,.79,1.72,1.39,3.14-.58,.29-1.17,.59-1.76,.88-.69,1.62-2.18,2.88-4.47,2.88-.38,0-.74-.04-1.07-.1-.88,.44-1.76,.88-2.63,1.32-.62-.96-1.15-2.03-1.57-3.15-1-1.16-1.39-2.79-1.17-4.32-.81-4.65-.17-8.84,1.58-8.49Zm58.76,279.96c-2.79,.19-8.13-2.49-8.29-4.29-.54-6.24,.7-12.62,1.26-18.95,1.39-.25,2.77-.5,4.16-.75,2.98,5.85,6.45,11.53,8.56,17.68,.49,1.43-3.54,6.17-5.7,6.31Zm-7.67-60.22c1.91-.18,5.07,1.55,5.9,3.26,2.97,6.1,5.18,12.57,7.68,18.9l-2.57,2.73c-8.98-6.75-17.28-17.87-29.46-4.15,1.3-8.23,12.36-20.15,18.45-20.73Zm-38.56-47.29c5.58-6.85,9.72-11.92,14.67-18.01,3.23,5.17,5.94,9.5,9.82,15.7-8.78,.83-15.42,1.45-24.5,2.3Zm6.09,55.83c-3.93,11.58-8.5,22.99-7.21,35.47,.61,5.9,2.5,11.68,4.11,18.84-7.68,3.11-15.69,6.36-24.16,9.78-.61-2.88-.88-3.59-.89-4.3-.52-66.86-1.08-133.72-1.46-200.58-.05-8.08,4.56-13.56,10.96-18.55,16.94-13.21,33.32-27.14,49.97-40.72,1.85-1.51,3.99-2.66,5.93-3.94,5.44,6.62,1.4,21.07-7.65,25.34-9.95,4.69-15.86,11.64-17.25,22.62-.12-.95,0-2.01-.39-2.83-1.71-3.59-4.48-10.35-5.23-10.14-5.39,1.51-10.26,4.6-11.05,11.1-.56,4.6-1.2,9.21-1.45,13.83-.3,5.59-1.12,11.32,5.93,14.27,2.18,.91,3.4,4.13,3.95,7.71-3.9-1.12-7.81-2.24-12.02-3.45-.7,2.22-1.08,3.59-1.55,4.92-1.88,5.27-6.77,10.42-1.83,16.17,5.52,6.43,13.05,7.17,20.93,5.97,2.57-.39,5.12-.95,8.89,.15-6.8,8.4-13.64,16.77-20.37,25.23-5.31,6.67-10.53,13.41-15.71,20.18-3.63,4.75-1.67,8.79,2.97,10.51,7.41,2.76,15.23,4.38,24.95,7.05-3.33,11.5-6.37,23.6-10.37,35.38Zm19.22,43.33c-.33,.78-1.81,1.09-2.75,1.62-.85-.27-1.7-.54-2.55-.81,.84-7.71,1.23-15.52,2.85-23.07,.41-1.92,4.73-3,7.25-4.47,.78,2.82,2.74,5.96,2.1,8.41-1.65,6.28-4.4,12.29-6.9,18.33Z"/><path class="ba" d="M1430.14,2653.13c35.46-125.22,143.32-186.41,231.89-190.1-9.46,41.95-30.2,77.04-57.98,108.19-51.46,57.71-129.63,84.82-173.92,81.92Z"/><path class="ba" d="M1660.82,2320.16c-108.75-8.08-201.77-83.72-230.46-190.92,115.72,.59,216.53,103.09,230.46,190.92Z"/><rect class="t" x="1346.18" y="2296.31" width="13.22" height="12.81"/><rect class="t" x="1346.18" y="2320.13" width="13.22" height="56.11"/><path class="t" d="M1397.07,2296.31h8.11c0,23.27-16.51,42.11-36.91,42.11v-18.42c15.94,0,28.79-10.71,28.79-23.68Z"/><path class="t" d="M1359.41,2349.74v-7.46c25.3,0,45.77,15.18,45.77,33.95h-20.03c0-14.66-11.64-26.49-25.75-26.49Z"/><path id="l" class="ag" d="M1402.88,2674.09c156.27,0,282.95-126.68,282.95-282.95s-126.68-282.95-282.95-282.95"/><path class="s" d="M1407.94,2297.29c54.26,0,98.24,43.98,98.24,98.24,0,54.26-43.98,98.24-98.24,98.24"/><text class="u" transform="translate(1408.72 2324.39) scale(1.06 1)"><tspan x="0" y="0">yokushin </tspan><tspan x="0" y="46.67">araté </tspan><tspan x="0" y="93.33">Club </tspan><tspan x="0" y="140">Goderville</tspan></text><path class="t" d="M1305.81,2568.01c-6.97-8.41-6.92-9.89,2.82-14.85,1.28-.65,2.78-.88,4.05-1.54,4.75-2.45,9.46-5.01,16.2-8.6-9.44-9.38-17.15-17.03-25.46-25.27,5.16-2.97,12.82-3.3,10.91-12.14-1.35-6.25-3.65-11.36-7.39-13.76-4.65,4.11-8.03,8.35-12.43,10.62-4.14,2.14-9.32,2.58-14.12,3.08-4.37,.46-8.84,0-13.27-.05,.53-5.46,1.06-10.91,1.58-16.37,.02-.19-.05-.38-.23-1.52-1.35,.42-2.66,.42-3.06,1.02-4.47,6.63-9.61,13-12.84,20.2-1.81,4.04-2.34,11.51,.07,13.85,3.08,3,10.17,4.2,14.71,3.03,14.58-3.77,14.44-4.33,14.04,10.49-.03,1.23,.07,2.5-.15,3.7-.87,4.66-3.26,7.9-8.31,8.63-3.37,.49-6.7,1.25-10.08,1.64-4.89,.56-7.76-2.77-6.69-7.67,.91-4.15,1.99-8.26,2.99-12.39-.73-.49-1.46-.99-2.19-1.48-2.26,2.61-4.75,5.05-6.69,7.87-1.61,2.33-1.91,6.17-3.98,7.47-5.55,3.48-3.46,6.86-1.28,10.93,2.99,5.57,7.03,8.37,13.67,7.29,5.3-.87,10.73-.91,16.07-1.57,5.78-.72,9.79,.89,12.44,6.55,2.75,5.9,6.04,11.64,9.82,16.95,10.88,15.26,7.13,32.21-10,40.19-3.5,1.63-10.18,1.38-12.71-.92-4.22-3.83-7.8-9.75-8.8-15.3-.94-5.24,11.96-10.96,19.44-8.92-2.41,3.73-4.7,7.26-7.36,11.37,11.49,.87,15.91-3.3,15.73-13.28-.15-8.31-6.76-17.85-14.73-20.81-7.96-2.97-13.19,1.93-17.8,7.09-6.34,7.09-12.49,14.39-18.15,22.02-5.91,7.97-4.78,11.87,2.81,18.15,11.13,9.21,21.88,18.89,32.93,28.21,5.22,4.4,10.51,8.81,16.23,12.5,3.21,2.07,7.37,2.67,13.12,4.61-1.39-4.77-1.42-7.8-2.94-9.52-6.29-7.17-4.84-14.73-.83-21.72,4.93-8.59,10.46-16.98,16.74-24.64,6.1-7.46,7.63-14.82,2.64-21.86-5.61-7.92-11.35-15.78-17.54-23.25Zm-16.62-45.89s-.03,0-.04,0c0,0-.06,0-.06,0,0,0,.02,0,.02,0,.01,0,.03,0,.04,0,0,0,.06,0,.06,0,0,0-.02,0-.02,0Z"/></g></g><g id="m"><rect class="bg" x="1020" y="2042" width="998" height="998"/><g><path class="ag" d="M1426.79,2264.03c28.1-10.62,58.1-14.62,88.05-13.84"/><path class="ag" d="M1374.87,2287.07c3.26-1.83,6.56-3.61,9.89-5.32"/><path class="ag" d="M1353.74,2300.5c3.5-2.45,7.05-4.83,10.65-7.12"/><path class="ag" d="M1327.79,2320.83c2.49-2.19,5.01-4.34,7.57-6.44"/><path class="ag" d="M1305.09,2723.94c-4.79-5.2-9.34-10.62-13.66-16.21"/><path class="ag" d="M1514.84,2816.09c-33.34-1.27-66.97-5.02-98.69-15.86-9.03-3.09-17.87-6.74-26.41-11.01"/><path class="t" d="M1485.88,2643.6c-6.78-4.67-13.79-9.18-21.21-12.67-17.78-8.37-35.91-15.99-53.75-24.24-2.18-1.01-3.44-3.98-5.13-6.03,2.86-1.14,5.67-2.97,8.61-3.24,4.09-.38,8.71,1.64,12.32,.38,4.29-1.5,8.09-5.08,11.22-8.56,.53-.59-2.91-5.68-5.32-7.78-2.87-2.5-6.68-3.88-9.93-5.98-3.95-2.54-7.74-5.31-11.94-8.22,7.69-5.66,52.36-3.15,58.19,3.38-5.97,5.56-11.93,11.1-18.71,17.41,11.07-.7,20.08-2.36,28.85-1.53,8.69,.82,17.14,4.15,27.34,6.82-1.56-4.95-2.37-9.7-4.46-13.8-6.77-13.3-15.32-24.34-32.33-24.8-9.24-.25-18.47-1.6-27.65-2.88-2.18-.3-5.9-2.29-5.9-3.52-.06-11.65-3.69-23.73,2.37-34.81,2.99-5.47,3.22-10.32,.32-15.76-1.57-2.95-1.71-6.78-3.6-9.41-2.78-3.86-4.99-9.3-11.65-7.82-6.96,1.54-13.95,2.91-22.53,4.68,.9-6.99,1.6-14.28,2.92-21.45,.36-1.96,2.24-4.5,4.03-5.19,8.78-3.4,18.05-5.63,26.55-9.58,4.41-2.05,8.96-6.18,10.9-10.51,2.12-4.73-.05-9.97-5.78-12.63-4.62-2.15-9.2-4.53-13.41-7.39-3.65-2.49-6.75-5.79-10.1-8.73,4.02-2.2,7.83-5.03,12.1-6.46,8.93-2.98,18.21-4.89,27.12-7.92,4.05-1.38,6.4-4.15,4.22-9.66-3.63-9.15-8.63-15.73-19.78-16.07,8.67-6.09,17.22-11.56,25.99-16.67,10.24-5.97,10.88-8.5,3.66-17.75-2.1-2.69-4.83-5.05-6.33-8.03-2.89-5.73-8.08-6.46-12.99-5.64-6.35,1.06-12.51,3.48-18.62,5.69-4.1,1.49-7.95,3.63-11.92,5.48-.58-.58-1.15-1.15-1.73-1.73,14.49-14.78,15.79-38.82,38.8-49.43-7.05-7.88-13.06-15.14-19.66-21.82-5.09-5.16-9.23-5.42-11.68-.65,2.22,2.55,1.42,7.45-2.38,8.32-.26,.75-.67,1.44-1.26,1.98-2.97,6.57-7.54,11.89-12.9,16.95-7.57,7.15-14.39,15.12-22.24,21.93-9.45,8.2-19.63,15.54-31.09,24.51,0-5.03-.74-7.56,.12-9.26,4.53-8.89,9-18.61,18.55-22.69,8.12-3.47,12.21-7.95,12.82-15.12-1.82-1.8-1.93-5.05-.33-7.03-.89-5.65-2.91-8.82-7.59-11.78-7.58-4.79-15.01-9.99-21.74-15.89-3.39-2.97-5.09-7.86-7.61-11.97-12.67,10.29-14.67,26.59-5.68,40.75,2.23,3.51,3.67,7.51,5.55,11.23,.5,.56,.86,1.24,1.07,1.97,.07,.12,.13,.24,.2,.36,3.81,6.39-1.26,10.38-4.26,14.16-1.15,1.45-6.52,.32-9.6-.73-.29-.1-.58-.22-.86-.34-1.75,.05-3.43-.94-4.44-2.37-1.61-.99-3.22-2.02-4.92-2.8-5.5-2.53-10.55-7.29-17.57-4.5,3.91,6.53,6.76,11.3,9.23,14.99,.16,.2,.3,.41,.43,.64,6.47,9.48,10.49,11.49,24.61,18.52-4.57,5.51-8.78,11.08-13.49,16.18-9.54,10.34-19.47,20.31-28.93,30.71-1.98,2.18-3.57,5.48-3.78,8.38-1.3,17.64-2.26,35.31-3.1,52.98-.28,5.95,7.5,14.27,13.06,14.58,4.85,.27,14.94-8.96,15.1-14.15,.59-18.25,1.4-36.51,1.36-54.77-.02-7.78,4.35-11.03,11.45-15.6,2.44,67.37-3.16,132.93-3.26,198.46-24.69,4.84-48.46,6.04-62.43-23.03-5.03,11.25-3.43,20.47-2.3,29.98,2.15,18.06,17.74,26.39,33.84,22.15,7.48-1.97,14.86-4.34,22.32-6.38,2.41-.66,4.95-.86,7.35-1.25,2.34,16.31,2.12,32.42,14.29,45.86,1.24-2.86,2.38-4.52,2.66-6.32,2.11-13.44,4.53-26.85,5.8-40.38,.53-5.66,2.19-9.5,7.29-11.4,8.15-3.05,16.38-5.9,24.7-8.47,3.49-1.08,7.27-1.2,12.52-2-5.23,6.28-9.28,10.89-13.03,15.74-3.2,4.14-3.2,7.69,2.26,10.38,2.83,1.4,5.13,3.87,7.68,5.86-.2,.52-.41,1.04-.61,1.55h-14.97c-.17,.57-.33,1.14-.5,1.72,2.44,1.42,4.88,2.84,8.22,4.79-20.8,21.82-41.17,43.2-63.01,66.12-1.27-10.33-2.28-18.48-3.28-26.63-.63-.15-1.26-.3-1.88-.44-1.25,2.14-2.95,4.15-3.68,6.46-2.68,8.48-7.72,14.77-14.97,20.07-5.81,4.25-10.9,9.79-15.32,15.51-1.76,2.28-1.93,6.91-1.02,9.93,.62,2.07,1.28,4.14,1.95,6.2,1.05,1,1.55,2.46,1.53,3.91,.8,1.04,1.16,2.41,1.06,3.73,1.97,5.67,4.05,11.31,6.18,16.92,.95,2.5,3.15,4.52,4.78,6.77,1.64-1.5,3.63-2.79,5.17-4.35,.1-.58,.3-1.14,.6-1.66,.27-.34,.53-.69,.8-1.03,.08-.08,.18-.15,.26-.23,.23-1.58,1.12-3.05,2.67-3.75,9.08-15.35,18.04-30.77,26.79-46.31,14.53-25.8,34.07-47.06,57.64-64.8,3.97-2.98,8.03-4.07,12.02-.87,11.8,9.48,23.59,18.99,35.03,28.91,15.27,13.24,23.32,29.35,17.17,51.3,3.02-.66,5.06-.87,6.92-1.56,12.75-4.71,20.14-14.97,26.29-26.22,5.07-9.28,3.79-15.03-4.66-20.85Zm-65.49-299.86c.16-2.15,6.45-3.83,9.91-5.72,1.17,2.98,3.88,6.36,3.23,8.86-2.2,8.45-5.6,16.58-8.54,24.83-1.24-.16-2.47-.32-3.71-.48-.46-9.18-1.59-18.41-.89-27.5Zm-57.28-72.2c2.5,.49,4.69,2.68,6.83,4.93,1.25,.5,2.1,1.46,2.56,2.61,.11,.1,.22,.21,.33,.31,.64,.59,.79,1.72,1.39,3.14-.58,.29-1.17,.59-1.76,.88-.69,1.62-2.18,2.88-4.47,2.88-.38,0-.74-.04-1.07-.1-.88,.44-1.76,.88-2.63,1.32-.62-.96-1.15-2.03-1.57-3.15-1-1.16-1.39-2.79-1.17-4.32-.81-4.65-.17-8.84,1.58-8.49Zm58.76,279.96c-2.79,.19-8.13-2.49-8.29-4.29-.54-6.24,.7-12.62,1.26-18.95,1.39-.25,2.77-.5,4.16-.75,2.98,5.85,6.45,11.53,8.56,17.68,.49,1.43-3.54,6.17-5.7,6.31Zm-7.67-60.22c1.91-.18,5.07,1.55,5.9,3.26,2.97,6.1,5.18,12.57,7.68,18.9l-2.57,2.73c-8.98-6.75-17.28-17.87-29.46-4.15,1.3-8.23,12.36-20.15,18.45-20.73Zm-38.56-47.29c5.58-6.85,9.72-11.92,14.67-18.01,3.23,5.17,5.94,9.5,9.82,15.7-8.78,.83-15.42,1.45-24.5,2.3Zm6.09,55.83c-3.93,11.58-8.5,22.99-7.21,35.47,.61,5.9,2.5,11.68,4.11,18.84-7.68,3.11-15.69,6.36-24.16,9.78-.61-2.88-.88-3.59-.89-4.3-.52-66.86-1.08-133.72-1.46-200.58-.05-8.08,4.56-13.56,10.96-18.55,16.94-13.21,33.32-27.14,49.97-40.72,1.85-1.51,3.99-2.66,5.93-3.94,5.44,6.62,1.4,21.07-7.65,25.34-9.95,4.69-15.86,11.64-17.25,22.62-.12-.95,0-2.01-.39-2.83-1.71-3.59-4.48-10.35-5.23-10.14-5.39,1.51-10.26,4.6-11.05,11.1-.56,4.6-1.2,9.21-1.45,13.83-.3,5.59-1.12,11.32,5.93,14.27,2.18,.91,3.4,4.13,3.95,7.71-3.9-1.12-7.81-2.24-12.02-3.45-.7,2.22-1.08,3.59-1.55,4.92-1.88,5.27-6.77,10.42-1.83,16.17,5.52,6.43,13.05,7.17,20.93,5.97,2.57-.39,5.12-.95,8.89,.15-6.8,8.4-13.64,16.77-20.37,25.23-5.31,6.67-10.53,13.41-15.71,20.18-3.63,4.75-1.67,8.79,2.97,10.51,7.41,2.76,15.23,4.38,24.95,7.05-3.33,11.5-6.37,23.6-10.37,35.38Zm19.22,43.33c-.33,.78-1.81,1.09-2.75,1.62-.85-.27-1.7-.54-2.55-.81,.84-7.71,1.23-15.52,2.85-23.07,.41-1.92,4.73-3,7.25-4.47,.78,2.82,2.74,5.96,2.1,8.41-1.65,6.28-4.4,12.29-6.9,18.33Z"/><path class="ba" d="M1542.14,2795.13c35.46-125.22,143.32-186.41,231.89-190.1-9.46,41.95-30.2,77.04-57.98,108.19-51.46,57.71-129.63,84.82-173.92,81.92Z"/><path class="ba" d="M1772.82,2462.16c-108.75-8.08-201.77-83.72-230.46-190.92,115.72,.59,216.53,103.09,230.46,190.92Z"/><rect class="t" x="1458.18" y="2438.31" width="13.22" height="12.81"/><rect class="t" x="1458.18" y="2462.13" width="13.22" height="56.11"/><path class="t" d="M1509.07,2438.31h8.11c0,23.27-16.51,42.11-36.91,42.11v-18.42c15.94,0,28.79-10.71,28.79-23.68Z"/><path class="t" d="M1471.41,2491.74v-7.46c25.3,0,45.77,15.18,45.77,33.95h-20.03c0-14.66-11.64-26.49-25.75-26.49Z"/><path id="n" class="ag" d="M1514.88,2816.09c156.27,0,282.95-126.68,282.95-282.95s-126.68-282.95-282.95-282.95"/><path class="s" d="M1519.94,2439.29c54.26,0,98.24,43.98,98.24,98.24s-43.98,98.24-98.24,98.24"/><text class="x" transform="translate(1520.72 2466.39) scale(1.06 1)"><tspan class="al" x="0" y="0">y</tspan><tspan x="19.72" y="0">o</tspan><tspan class="ap" x="40.83" y="0">k</tspan><tspan x="64.36" y="0">ushin </tspan><tspan x="0" y="46.67">a</tspan><tspan class="ap" x="21.35" y="46.67">ra</tspan><tspan x="60.78" y="46.67">té </tspan><tspan x="0" y="93.33">C</tspan><tspan class="y" x="26.83" y="93.33">l</tspan><tspan x="38.93" y="93.33">ub </tspan><tspan x="0" y="140">Gode</tspan><tspan class="ap" x="92.16" y="140">r</tspan><tspan x="110.83" y="140">ville</tspan></text><path class="t" d="M1417.81,2710.01c-6.97-8.41-6.92-9.89,2.82-14.85,1.28-.65,2.78-.88,4.05-1.54,4.75-2.45,9.46-5.01,16.2-8.6-9.44-9.38-17.15-17.03-25.46-25.27,5.16-2.97,12.82-3.3,10.91-12.14-1.35-6.25-3.65-11.36-7.39-13.76-4.65,4.11-8.03,8.35-12.43,10.62-4.14,2.14-9.32,2.58-14.12,3.08-4.37,.46-8.84,0-13.27-.05,.53-5.46,1.06-10.91,1.58-16.37,.02-.19-.05-.38-.23-1.52-1.35,.42-2.66,.42-3.06,1.02-4.47,6.63-9.61,13-12.84,20.2-1.81,4.04-2.34,11.51,.07,13.85,3.08,3,10.17,4.2,14.71,3.03,14.58-3.77,14.44-4.33,14.04,10.49-.03,1.23,.07,2.5-.15,3.7-.87,4.66-3.26,7.9-8.31,8.63-3.37,.49-6.7,1.25-10.08,1.64-4.89,.56-7.76-2.77-6.69-7.67,.91-4.15,1.99-8.26,2.99-12.39-.73-.49-1.46-.99-2.19-1.48-2.26,2.61-4.75,5.05-6.69,7.87-1.61,2.33-1.91,6.17-3.98,7.47-5.55,3.48-3.46,6.86-1.28,10.93,2.99,5.57,7.03,8.37,13.67,7.29,5.3-.87,10.73-.91,16.07-1.57,5.78-.72,9.79,.89,12.44,6.55,2.75,5.9,6.04,11.64,9.82,16.95,10.88,15.26,7.13,32.21-10,40.19-3.5,1.63-10.18,1.38-12.71-.92-4.22-3.83-7.8-9.75-8.8-15.3-.94-5.24,11.96-10.96,19.44-8.92-2.41,3.73-4.7,7.26-7.36,11.37,11.49,.87,15.91-3.3,15.73-13.28-.15-8.31-6.76-17.85-14.73-20.81-7.96-2.97-13.19,1.93-17.8,7.09-6.34,7.09-12.49,14.39-18.15,22.02-5.91,7.97-4.78,11.87,2.81,18.15,11.13,9.21,21.88,18.89,32.93,28.21,5.22,4.4,10.51,8.81,16.23,12.5,3.21,2.07,7.37,2.67,13.12,4.61-1.39-4.77-1.42-7.8-2.94-9.52-6.29-7.17-4.84-14.73-.83-21.72,4.93-8.59,10.46-16.98,16.74-24.64,6.1-7.46,7.63-14.82,2.64-21.86-5.61-7.92-11.35-15.78-17.54-23.25Zm-16.62-45.89s-.03,0-.04,0c0,0-.06,0-.06,0,0,0,.02,0,.02,0,.01,0,.03,0,.04,0,0,0,.06,0,.06,0,0,0-.02,0-.02,0Z"/></g><path class="ag" d="M385.79,2255.03c28.1-10.62,58.1-14.62,88.05-13.84"/><path class="ag" d="M333.87,2278.07c3.26-1.83,6.56-3.61,9.89-5.32"/><path class="ag" d="M312.74,2291.5c3.5-2.45,7.05-4.83,10.65-7.12"/><path class="ag" d="M286.79,2311.83c2.49-2.19,5.01-4.34,7.57-6.44"/><path class="ag" d="M264.09,2714.94c-4.79-5.2-9.34-10.62-13.66-16.21"/><path class="af" d="M473.84,2807.09c-33.34-1.27-66.97-5.02-98.69-15.86-9.03-3.09-17.87-6.74-26.41-11.01"/><path class="t" d="M444.88,2634.6c-6.78-4.67-13.79-9.18-21.21-12.67-17.78-8.37-35.91-15.99-53.75-24.24-2.18-1.01-3.44-3.98-5.13-6.03,2.86-1.14,5.67-2.97,8.61-3.24,4.09-.38,8.71,1.64,12.32,.38,4.29-1.5,8.09-5.08,11.22-8.56,.53-.59-2.91-5.68-5.32-7.78-2.87-2.5-6.68-3.88-9.93-5.98-3.95-2.54-7.74-5.31-11.94-8.22,7.69-5.66,52.36-3.15,58.19,3.38-5.97,5.56-11.93,11.1-18.71,17.41,11.07-.7,20.08-2.36,28.85-1.53,8.69,.82,17.14,4.15,27.34,6.82-1.56-4.95-2.37-9.7-4.46-13.8-6.77-13.3-15.32-24.34-32.33-24.8-9.24-.25-18.47-1.6-27.65-2.88-2.18-.3-5.9-2.29-5.9-3.52-.06-11.65-3.69-23.73,2.37-34.81,2.99-5.47,3.22-10.32,.32-15.76-1.57-2.95-1.71-6.78-3.6-9.41-2.78-3.86-4.99-9.3-11.65-7.82-6.96,1.54-13.95,2.91-22.53,4.68,.9-6.99,1.6-14.28,2.92-21.45,.36-1.96,2.24-4.5,4.03-5.19,8.78-3.4,18.05-5.63,26.55-9.58,4.41-2.05,8.96-6.18,10.9-10.51,2.12-4.73-.05-9.97-5.78-12.63-4.62-2.15-9.2-4.53-13.41-7.39-3.65-2.49-6.75-5.79-10.1-8.73,4.02-2.2,7.83-5.03,12.1-6.46,8.93-2.98,18.21-4.89,27.12-7.92,4.05-1.38,6.4-4.15,4.22-9.66-3.63-9.15-8.63-15.73-19.78-16.07,8.67-6.09,17.22-11.56,25.99-16.67,10.24-5.97,10.88-8.5,3.66-17.75-2.1-2.69-4.83-5.05-6.33-8.03-2.89-5.73-8.08-6.46-12.99-5.64-6.35,1.06-12.51,3.48-18.62,5.69-4.1,1.49-7.95,3.63-11.92,5.48-.58-.58-1.15-1.15-1.73-1.73,14.49-14.78,15.79-38.82,38.8-49.43-7.05-7.88-13.06-15.14-19.66-21.82-5.09-5.16-9.23-5.42-11.68-.65,2.22,2.55,1.42,7.45-2.38,8.32-.26,.75-.67,1.44-1.26,1.98-2.97,6.57-7.54,11.89-12.9,16.95-7.57,7.15-14.39,15.12-22.24,21.93-9.45,8.2-19.63,15.54-31.09,24.51,0-5.03-.74-7.56,.12-9.26,4.53-8.89,9-18.61,18.55-22.69,8.12-3.47,12.21-7.95,12.82-15.12-1.82-1.8-1.93-5.05-.33-7.03-.89-5.65-2.91-8.82-7.59-11.78-7.58-4.79-15.01-9.99-21.74-15.89-3.39-2.97-5.09-7.86-7.61-11.97-12.67,10.29-14.67,26.59-5.68,40.75,2.23,3.51,3.67,7.51,5.55,11.23,.5,.56,.86,1.24,1.07,1.97,.07,.12,.13,.24,.2,.36,3.81,6.39-1.26,10.38-4.26,14.16-1.15,1.45-6.52,.32-9.6-.73-.29-.1-.58-.22-.86-.34-1.75,.05-3.43-.94-4.44-2.37-1.61-.99-3.22-2.02-4.92-2.8-5.5-2.53-10.55-7.29-17.57-4.5,3.91,6.53,6.76,11.3,9.23,14.99,.16,.2,.3,.41,.43,.64,6.47,9.48,10.49,11.49,24.61,18.52-4.57,5.51-8.78,11.08-13.49,16.18-9.54,10.34-19.47,20.31-28.93,30.71-1.98,2.18-3.57,5.48-3.78,8.38-1.3,17.64-2.26,35.31-3.1,52.98-.28,5.95,7.5,14.27,13.06,14.58,4.85,.27,14.94-8.96,15.1-14.15,.59-18.25,1.4-36.51,1.36-54.77-.02-7.78,4.35-11.03,11.45-15.6,2.44,67.37-3.16,132.93-3.26,198.46-24.69,4.84-48.46,6.04-62.43-23.03-5.03,11.25-3.43,20.47-2.3,29.98,2.15,18.06,17.74,26.39,33.84,22.15,7.48-1.97,14.86-4.34,22.32-6.38,2.41-.66,4.95-.86,7.35-1.25,2.34,16.31,2.12,32.42,14.29,45.86,1.24-2.86,2.38-4.52,2.66-6.32,2.11-13.44,4.53-26.85,5.8-40.38,.53-5.66,2.19-9.5,7.29-11.4,8.15-3.05,16.38-5.9,24.7-8.47,3.49-1.08,7.27-1.2,12.52-2-5.23,6.28-9.28,10.89-13.03,15.74-3.2,4.14-3.2,7.69,2.26,10.38,2.83,1.4,5.13,3.87,7.68,5.86-.2,.52-.41,1.04-.61,1.55h-14.97c-.17,.57-.33,1.14-.5,1.72,2.44,1.42,4.88,2.84,8.22,4.79-20.8,21.82-41.17,43.2-63.01,66.12-1.27-10.33-2.28-18.48-3.28-26.63-.63-.15-1.26-.3-1.88-.44-1.25,2.14-2.95,4.15-3.68,6.46-2.68,8.48-7.72,14.77-14.97,20.07-5.81,4.25-10.9,9.79-15.32,15.51-1.76,2.28-1.93,6.91-1.02,9.93,.62,2.07,1.28,4.14,1.95,6.2,1.05,1,1.55,2.46,1.53,3.91,.8,1.04,1.16,2.41,1.06,3.73,1.97,5.67,4.05,11.31,6.18,16.92,.95,2.5,3.15,4.52,4.78,6.77,1.64-1.5,3.63-2.79,5.17-4.35,.1-.58,.3-1.14,.6-1.66,.27-.34,.53-.69,.8-1.03,.08-.08,.18-.15,.26-.23,.23-1.58,1.12-3.05,2.67-3.75,9.08-15.35,18.04-30.77,26.79-46.31,14.53-25.8,34.07-47.06,57.64-64.8,3.97-2.98,8.03-4.07,12.02-.87,11.8,9.48,23.59,18.99,35.03,28.91,15.27,13.24,23.32,29.35,17.17,51.3,3.02-.66,5.06-.87,6.92-1.56,12.75-4.71,20.14-14.97,26.29-26.22,5.07-9.28,3.79-15.03-4.66-20.85Zm-65.49-299.86c.16-2.15,6.45-3.83,9.91-5.72,1.17,2.98,3.88,6.36,3.23,8.86-2.2,8.45-5.6,16.58-8.54,24.83-1.24-.16-2.47-.32-3.71-.48-.46-9.18-1.59-18.41-.89-27.5Zm-57.28-72.2c2.5,.49,4.69,2.68,6.83,4.93,1.25,.5,2.1,1.46,2.56,2.61,.11,.1,.22,.21,.33,.31,.64,.59,.79,1.72,1.39,3.14-.58,.29-1.17,.59-1.76,.88-.69,1.62-2.18,2.88-4.47,2.88-.38,0-.74-.04-1.07-.1-.88,.44-1.76,.88-2.63,1.32-.62-.96-1.15-2.03-1.57-3.15-1-1.16-1.39-2.79-1.17-4.32-.81-4.65-.17-8.84,1.58-8.49Zm58.76,279.96c-2.79,.19-8.13-2.49-8.29-4.29-.54-6.24,.7-12.62,1.26-18.95,1.39-.25,2.77-.5,4.16-.75,2.98,5.85,6.45,11.53,8.56,17.68,.49,1.43-3.54,6.17-5.7,6.31Zm-7.67-60.22c1.91-.18,5.07,1.55,5.9,3.26,2.97,6.1,5.18,12.57,7.68,18.9l-2.57,2.73c-8.98-6.75-17.28-17.87-29.46-4.15,1.3-8.23,12.36-20.15,18.45-20.73Zm-38.56-47.29c5.58-6.85,9.72-11.92,14.67-18.01,3.23,5.17,5.94,9.5,9.82,15.7-8.78,.83-15.42,1.45-24.5,2.3Zm6.09,55.83c-3.93,11.58-8.5,22.99-7.21,35.47,.61,5.9,2.5,11.68,4.11,18.84-7.68,3.11-15.69,6.36-24.16,9.78-.61-2.88-.88-3.59-.89-4.3-.52-66.86-1.08-133.72-1.46-200.58-.05-8.08,4.56-13.56,10.96-18.55,16.94-13.21,33.32-27.14,49.97-40.72,1.85-1.51,3.99-2.66,5.93-3.94,5.44,6.62,1.4,21.07-7.65,25.34-9.95,4.69-15.86,11.64-17.25,22.62-.12-.95,0-2.01-.39-2.83-1.71-3.59-4.48-10.35-5.23-10.14-5.39,1.51-10.26,4.6-11.05,11.1-.56,4.6-1.2,9.21-1.45,13.83-.3,5.59-1.12,11.32,5.93,14.27,2.18,.91,3.4,4.13,3.95,7.71-3.9-1.12-7.81-2.24-12.02-3.45-.7,2.22-1.08,3.59-1.55,4.92-1.88,5.27-6.77,10.42-1.83,16.17,5.52,6.43,13.05,7.17,20.93,5.97,2.57-.39,5.12-.95,8.89,.15-6.8,8.4-13.64,16.77-20.37,25.23-5.31,6.67-10.53,13.41-15.71,20.18-3.63,4.75-1.67,8.79,2.97,10.51,7.41,2.76,15.23,4.38,24.95,7.05-3.33,11.5-6.37,23.6-10.37,35.38Zm19.22,43.33c-.33,.78-1.81,1.09-2.75,1.62-.85-.27-1.7-.54-2.55-.81,.84-7.71,1.23-15.52,2.85-23.07,.41-1.92,4.73-3,7.25-4.47,.78,2.82,2.74,5.96,2.1,8.41-1.65,6.28-4.4,12.29-6.9,18.33Z"/><path class="ab" d="M501.14,2786.13c35.46-125.22,143.32-186.41,231.89-190.1-9.46,41.95-30.2,77.04-57.98,108.19-51.46,57.71-129.63,84.82-173.92,81.92Z"/><path class="ab" d="M731.82,2453.16c-108.75-8.08-201.77-83.72-230.46-190.92,115.72,.59,216.53,103.09,230.46,190.92Z"/><rect class="t" x="417.18" y="2429.31" width="13.22" height="12.81"/><rect class="t" x="417.18" y="2453.13" width="13.22" height="56.11"/><path class="t" d="M468.07,2429.31h8.11c0,23.27-16.51,42.11-36.91,42.11v-18.42c15.94,0,28.79-10.71,28.79-23.68Z"/><path class="t" d="M430.41,2482.74v-7.46c25.3,0,45.77,15.18,45.77,33.95h-20.03c0-14.66-11.64-26.49-25.75-26.49Z"/><path id="o" class="af" d="M473.88,2807.09c156.27,0,282.95-126.68,282.95-282.95s-126.68-282.95-282.95-282.95"/><path class="ab" d="M478.94,2430.29c54.26,0,98.24,43.98,98.24,98.24,0,54.26-43.98,98.24-98.24,98.24"/><text class="x" transform="translate(479.72 2457.39) scale(1.06 1)"><tspan class="al" x="0" y="0">y</tspan><tspan x="19.72" y="0">o</tspan><tspan class="ap" x="40.83" y="0">k</tspan><tspan x="64.36" y="0">ushin </tspan><tspan x="0" y="46.67">a</tspan><tspan class="ap" x="21.35" y="46.67">ra</tspan><tspan x="60.78" y="46.67">té </tspan><tspan x="0" y="93.33">C</tspan><tspan class="y" x="26.83" y="93.33">l</tspan><tspan x="38.93" y="93.33">ub </tspan><tspan x="0" y="140">Gode</tspan><tspan class="ap" x="92.16" y="140">r</tspan><tspan x="110.83" y="140">ville</tspan></text><path class="t" d="M376.81,2701.01c-6.97-8.41-6.92-9.89,2.82-14.85,1.28-.65,2.78-.88,4.05-1.54,4.75-2.45,9.46-5.01,16.2-8.6-9.44-9.38-17.15-17.03-25.46-25.27,5.16-2.97,12.82-3.3,10.91-12.14-1.35-6.25-3.65-11.36-7.39-13.76-4.65,4.11-8.03,8.35-12.43,10.62-4.14,2.14-9.32,2.58-14.12,3.08-4.37,.46-8.84,0-13.27-.05,.53-5.46,1.06-10.91,1.58-16.37,.02-.19-.05-.38-.23-1.52-1.35,.42-2.66,.42-3.06,1.02-4.47,6.63-9.61,13-12.84,20.2-1.81,4.04-2.34,11.51,.07,13.85,3.08,3,10.17,4.2,14.71,3.03,14.58-3.77,14.44-4.33,14.04,10.49-.03,1.23,.07,2.5-.15,3.7-.87,4.66-3.26,7.9-8.31,8.63-3.37,.49-6.7,1.25-10.08,1.64-4.89,.56-7.76-2.77-6.69-7.67,.91-4.15,1.99-8.26,2.99-12.39-.73-.49-1.46-.99-2.19-1.48-2.26,2.61-4.75,5.05-6.69,7.87-1.61,2.33-1.91,6.17-3.98,7.47-5.55,3.48-3.46,6.86-1.28,10.93,2.99,5.57,7.03,8.37,13.67,7.29,5.3-.87,10.73-.91,16.07-1.57,5.78-.72,9.79,.89,12.44,6.55,2.75,5.9,6.04,11.64,9.82,16.95,10.88,15.26,7.13,32.21-10,40.19-3.5,1.63-10.18,1.38-12.71-.92-4.22-3.83-7.8-9.75-8.8-15.3-.94-5.24,11.96-10.96,19.44-8.92-2.41,3.73-4.7,7.26-7.36,11.37,11.49,.87,15.91-3.3,15.73-13.28-.15-8.31-6.76-17.85-14.73-20.81-7.96-2.97-13.19,1.93-17.8,7.09-6.34,7.09-12.49,14.39-18.15,22.02-5.91,7.97-4.78,11.87,2.81,18.15,11.13,9.21,21.88,18.89,32.93,28.21,5.22,4.4,10.51,8.81,16.23,12.5,3.21,2.07,7.37,2.67,13.12,4.61-1.39-4.77-1.42-7.8-2.94-9.52-6.29-7.17-4.84-14.73-.83-21.72,4.93-8.59,10.46-16.98,16.74-24.64,6.1-7.46,7.63-14.82,2.64-21.86-5.61-7.92-11.35-15.78-17.54-23.25Zm-16.62-45.89s-.03,0-.04,0c0,0-.06,0-.06,0,0,0,.02,0,.02,0,.01,0,.03,0,.04,0,0,0,.06,0,.06,0,0,0-.02,0-.02,0Z"/><path class="w" d="M1469.39,570.12c-6.78-4.67-13.79-9.18-21.21-12.67-17.78-8.37-35.91-15.99-53.75-24.24-2.18-1.01-3.44-3.98-5.13-6.03,2.86-1.14,5.67-2.97,8.61-3.24,4.09-.38,8.71,1.64,12.32,.38,4.29-1.5,8.09-5.08,11.22-8.56,.53-.59-2.91-5.68-5.32-7.78-2.87-2.5-6.68-3.88-9.93-5.98-3.95-2.54-7.74-5.31-11.94-8.22,7.69-5.66,52.36-3.15,58.19,3.38-5.97,5.56-11.93,11.1-18.71,17.41,11.07-.7,20.08-2.36,28.85-1.53,8.69,.82,17.14,4.15,27.34,6.82-1.56-4.95-2.37-9.7-4.46-13.8-6.77-13.3-15.32-24.34-32.33-24.8-9.24-.25-18.47-1.6-27.65-2.88-2.18-.3-5.9-2.29-5.9-3.52-.06-11.65-3.69-23.73,2.37-34.81,2.99-5.47,3.22-10.32,.32-15.76-1.57-2.95-1.71-6.78-3.6-9.41-2.78-3.86-4.99-9.3-11.65-7.82-6.96,1.54-13.95,2.91-22.53,4.68,.9-6.99,1.6-14.28,2.92-21.45,.36-1.96,2.24-4.5,4.03-5.19,8.78-3.4,18.05-5.63,26.55-9.58,4.41-2.05,8.96-6.18,10.9-10.51,2.12-4.73-.05-9.97-5.78-12.63-4.62-2.15-9.2-4.53-13.41-7.39-3.65-2.49-6.75-5.79-10.1-8.73,4.02-2.2,7.83-5.03,12.1-6.46,8.93-2.98,18.21-4.89,27.12-7.92,4.05-1.38,6.4-4.15,4.22-9.66-3.63-9.15-8.63-15.73-19.78-16.07,8.67-6.09,17.22-11.56,25.99-16.67,10.24-5.97,10.88-8.5,3.66-17.75-2.1-2.69-4.83-5.05-6.33-8.03-2.89-5.73-8.08-6.46-12.99-5.64-6.35,1.06-12.51,3.48-18.62,5.69-4.1,1.49-7.95,3.63-11.92,5.48-.58-.58-1.15-1.15-1.73-1.73,14.49-14.78,15.79-38.82,38.8-49.43-7.05-7.88-13.06-15.14-19.66-21.82-5.09-5.16-9.23-5.42-11.68-.65,2.22,2.55,1.42,7.45-2.38,8.32-.26,.75-.67,1.44-1.26,1.98-2.97,6.57-7.54,11.89-12.9,16.95-7.57,7.15-14.39,15.12-22.24,21.93-9.45,8.2-19.63,15.54-31.09,24.51,0-5.03-.74-7.56,.12-9.26,4.53-8.89,9-18.61,18.55-22.69,8.12-3.47,12.21-7.95,12.82-15.12-1.82-1.8-1.93-5.05-.33-7.03-.89-5.65-2.91-8.82-7.59-11.78-7.58-4.79-15.01-9.99-21.74-15.89-3.39-2.97-5.09-7.86-7.61-11.97-12.67,10.29-14.67,26.59-5.68,40.75,2.23,3.51,3.67,7.51,5.55,11.23,.5,.56,.86,1.24,1.07,1.97,.07,.12,.13,.24,.2,.36,3.81,6.39-1.26,10.38-4.26,14.16-1.15,1.45-6.52,.32-9.6-.73-.29-.1-.58-.22-.86-.34-1.75,.05-3.43-.94-4.44-2.37-1.61-.99-3.22-2.02-4.92-2.8-5.5-2.53-10.55-7.29-17.57-4.5,3.91,6.53,6.76,11.3,9.23,14.99,.16,.2,.3,.41,.43,.64,6.47,9.48,10.49,11.49,24.61,18.52-4.57,5.51-8.78,11.08-13.49,16.18-9.54,10.34-19.47,20.31-28.93,30.71-1.98,2.18-3.57,5.48-3.78,8.38-1.3,17.64-2.26,35.31-3.1,52.98-.28,5.95,7.5,14.27,13.06,14.58,4.85,.27,14.94-8.96,15.1-14.15,.59-18.25,1.4-36.51,1.36-54.77-.02-7.78,4.35-11.03,11.45-15.6,2.44,67.37-3.16,132.93-3.26,198.46-24.69,4.84-48.46,6.04-62.43-23.03-5.03,11.25-3.43,20.47-2.3,29.98,2.15,18.06,17.74,26.39,33.84,22.15,7.48-1.97,14.86-4.34,22.32-6.38,2.41-.66,4.95-.86,7.35-1.25,2.34,16.31,2.12,32.42,14.29,45.86,1.24-2.86,2.38-4.52,2.66-6.32,2.11-13.44,4.53-26.85,5.8-40.38,.53-5.66,2.19-9.5,7.29-11.4,8.15-3.05,16.38-5.9,24.7-8.47,3.49-1.08,7.27-1.2,12.52-2-5.23,6.28-9.28,10.89-13.03,15.74-3.2,4.14-3.2,7.69,2.26,10.38,2.83,1.4,5.13,3.87,7.68,5.86-.2,.52-.41,1.04-.61,1.55h-14.97c-.17,.57-.33,1.14-.5,1.72,2.44,1.42,4.88,2.84,8.22,4.79-20.8,21.82-41.17,43.2-63.01,66.12-1.27-10.33-2.28-18.48-3.28-26.63-.63-.15-1.26-.3-1.88-.44-1.25,2.14-2.95,4.15-3.68,6.46-2.68,8.48-7.72,14.77-14.97,20.07-5.81,4.25-10.9,9.79-15.32,15.51-1.76,2.28-1.93,6.91-1.02,9.93,.62,2.07,1.28,4.14,1.95,6.2,1.05,1,1.55,2.46,1.53,3.91,.8,1.04,1.16,2.41,1.06,3.73,1.97,5.67,4.05,11.31,6.18,16.92,.95,2.5,3.15,4.52,4.78,6.77,1.64-1.5,3.63-2.79,5.17-4.35,.1-.58,.3-1.14,.6-1.66,.27-.34,.53-.69,.8-1.03,.08-.08,.18-.15,.26-.23,.23-1.58,1.12-3.05,2.67-3.75,9.08-15.35,18.04-30.77,26.79-46.31,14.53-25.8,34.07-47.06,57.64-64.8,3.97-2.98,8.03-4.07,12.02-.87,11.8,9.48,23.59,18.99,35.03,28.91,15.27,13.24,23.32,29.35,17.17,51.3,3.02-.66,5.06-.87,6.92-1.56,12.75-4.71,20.14-14.97,26.29-26.22,5.07-9.28,3.79-15.03-4.66-20.85Zm-65.49-299.86c.16-2.15,6.45-3.83,9.91-5.72,1.17,2.98,3.88,6.36,3.23,8.86-2.2,8.45-5.6,16.58-8.54,24.83-1.24-.16-2.47-.32-3.71-.48-.46-9.18-1.59-18.41-.89-27.5Zm-57.28-72.2c2.5,.49,4.69,2.68,6.83,4.93,1.25,.5,2.1,1.46,2.56,2.61,.11,.1,.22,.21,.33,.31,.64,.59,.79,1.72,1.39,3.14-.58,.29-1.17,.59-1.76,.88-.69,1.62-2.18,2.88-4.47,2.88-.38,0-.74-.04-1.07-.1-.88,.44-1.76,.88-2.63,1.32-.62-.96-1.15-2.03-1.57-3.15-1-1.16-1.39-2.79-1.17-4.32-.81-4.65-.17-8.84,1.58-8.49Zm58.76,279.96c-2.79,.19-8.13-2.49-8.29-4.29-.54-6.24,.7-12.62,1.26-18.95,1.39-.25,2.77-.5,4.16-.75,2.98,5.85,6.45,11.53,8.56,17.68,.49,1.43-3.54,6.17-5.7,6.31Zm-7.67-60.22c1.91-.18,5.07,1.55,5.9,3.26,2.97,6.1,5.18,12.57,7.68,18.9l-2.57,2.73c-8.98-6.75-17.28-17.87-29.46-4.15,1.3-8.23,12.36-20.15,18.45-20.73Zm-38.56-47.29c5.58-6.85,9.72-11.92,14.67-18.01,3.23,5.17,5.94,9.5,9.82,15.7-8.78,.83-15.42,1.45-24.5,2.3Zm6.09,55.83c-3.93,11.58-8.5,22.99-7.21,35.47,.61,5.9,2.5,11.68,4.11,18.84-7.68,3.11-15.69,6.36-24.16,9.78-.61-2.88-.88-3.59-.89-4.3-.52-66.86-1.08-133.72-1.46-200.58-.05-8.08,4.56-13.56,10.96-18.55,16.94-13.21,33.32-27.14,49.97-40.72,1.85-1.51,3.99-2.66,5.93-3.94,5.44,6.62,1.4,21.07-7.65,25.34-9.95,4.69-15.86,11.64-17.25,22.62-.12-.95,0-2.01-.39-2.83-1.71-3.59-4.48-10.35-5.23-10.14-5.39,1.51-10.26,4.6-11.05,11.1-.56,4.6-1.2,9.21-1.45,13.83-.3,5.59-1.12,11.32,5.93,14.27,2.18,.91,3.4,4.13,3.95,7.71-3.9-1.12-7.81-2.24-12.02-3.45-.7,2.22-1.08,3.59-1.55,4.92-1.88,5.27-6.77,10.42-1.83,16.17,5.52,6.43,13.05,7.17,20.93,5.97,2.57-.39,5.12-.95,8.89,.15-6.8,8.4-13.64,16.77-20.37,25.23-5.31,6.67-10.53,13.41-15.71,20.18-3.63,4.75-1.67,8.79,2.97,10.51,7.41,2.76,15.23,4.38,24.95,7.05-3.33,11.5-6.37,23.6-10.37,35.38Zm19.22,43.33c-.33,.78-1.81,1.09-2.75,1.62-.85-.27-1.7-.54-2.55-.81,.84-7.71,1.23-15.52,2.85-23.07,.41-1.92,4.73-3,7.25-4.47,.78,2.82,2.74,5.96,2.1,8.41-1.65,6.28-4.4,12.29-6.9,18.33Z"/><path class="w" d="M1405.23,639.31c-6.97-8.41-6.92-9.89,2.82-14.85,1.28-.65,2.78-.88,4.05-1.54,4.75-2.45,9.46-5.01,16.2-8.6-9.44-9.38-17.15-17.03-25.46-25.27,5.16-2.97,12.82-3.3,10.91-12.14-1.35-6.25-3.65-11.36-7.39-13.76-4.65,4.11-8.03,8.35-12.43,10.62-4.14,2.14-9.32,2.58-14.12,3.08-4.37,.46-8.84,0-13.27-.05,.53-5.46,1.06-10.91,1.58-16.37,.02-.19-.05-.38-.23-1.52-1.35,.42-2.66,.42-3.06,1.02-4.47,6.63-9.61,13-12.84,20.2-1.81,4.04-2.34,11.51,.07,13.85,3.08,3,10.17,4.2,14.71,3.03,14.58-3.77,14.44-4.33,14.04,10.49-.03,1.23,.07,2.5-.15,3.7-.87,4.66-3.26,7.9-8.31,8.63-3.37,.49-6.7,1.25-10.08,1.64-4.89,.56-7.76-2.77-6.69-7.67,.91-4.15,1.99-8.26,2.99-12.39-.73-.49-1.46-.99-2.19-1.48-2.26,2.61-4.75,5.05-6.69,7.87-1.61,2.33-1.91,6.17-3.98,7.47-5.55,3.48-3.46,6.86-1.28,10.93,2.99,5.57,7.03,8.37,13.67,7.29,5.3-.87,10.73-.91,16.07-1.57,5.78-.72,9.79,.89,12.44,6.55,2.75,5.9,6.04,11.64,9.82,16.95,10.88,15.26,7.13,32.21-10,40.19-3.5,1.63-10.18,1.38-12.71-.92-4.22-3.83-7.8-9.75-8.8-15.3-.94-5.24,11.96-10.96,19.44-8.92-2.41,3.73-4.7,7.26-7.36,11.37,11.49,.87,15.91-3.3,15.73-13.28-.15-8.31-6.76-17.85-14.73-20.81-7.96-2.97-13.19,1.93-17.8,7.09-6.34,7.09-12.49,14.39-18.15,22.02-5.91,7.97-4.78,11.87,2.81,18.15,11.13,9.21,21.88,18.89,32.93,28.21,5.22,4.4,10.51,8.81,16.23,12.5,3.21,2.07,7.37,2.67,13.12,4.61-1.39-4.77-1.42-7.8-2.94-9.52-6.29-7.17-4.84-14.73-.83-21.72,4.93-8.59,10.46-16.98,16.74-24.64,6.1-7.46,7.63-14.82,2.64-21.86-5.61-7.92-11.35-15.78-17.54-23.25Zm-16.62-45.89s-.03,0-.04,0c0,0-.06,0-.06,0,0,0,.02,0,.02,0,.01,0,.03,0,.04,0,0,0,.06,0,.06,0,0,0-.02,0-.02,0Z"/></g><g id="p"/><g id="q"><path class="ar" d="M0,0V1000H1000V0H0ZM348.8,618.35s-.02,0-.04,0c0,0-.05,0-.05,0h.01s.02,0,.04,0c0,0,.05,0,.05,0h-.01Z"/><rect class="ac" x="3120" y="1075" width="50" height="50"/><rect class="ad" x="3141.5" y="1134.5" width="50" height="50"/><rect class="w" x="3170.5" y="1193.5" width="50" height="50"/><path class="af" d="M374.01,1223.01c27.94-10.62,57.77-14.62,87.56-13.85"/><path class="ag" d="M322.38,1246.05c3.24-1.83,6.52-3.61,9.83-5.32"/><path class="ag" d="M301.37,1259.48c3.48-2.45,7.01-4.83,10.6-7.12"/><path class="ag" d="M275.56,1279.8c2.47-2.19,4.98-4.34,7.53-6.44"/><path class="ag" d="M252.99,1682.93c-4.77-5.2-9.29-10.62-13.58-16.21"/><path class="af" d="M461.57,1775.09c-33.16-1.27-66.6-5.02-98.14-15.86-8.98-3.09-17.77-6.74-26.26-11.01"/><path d="M432.77,1602.59c-6.74-4.67-13.72-9.18-21.1-12.67-17.68-8.37-35.71-15.99-53.45-24.24-2.16-1.01-3.42-3.98-5.1-6.03,2.85-1.14,5.63-2.97,8.56-3.24,4.06-.38,8.66,1.64,12.25,.38,4.27-1.5,8.05-5.08,11.16-8.56,.53-.59-2.89-5.68-5.29-7.78-2.85-2.5-6.64-3.88-9.88-5.98-3.92-2.54-7.7-5.31-11.87-8.22,7.65-5.66,52.07-3.15,57.87,3.38-5.94,5.56-11.86,11.1-18.6,17.41,11-.7,19.96-2.36,28.69-1.53,8.64,.82,17.04,4.16,27.19,6.82-1.55-4.95-2.36-9.7-4.43-13.8-6.73-13.3-15.23-24.34-32.15-24.8-9.19-.25-18.37-1.6-27.5-2.88-2.17-.3-5.87-2.29-5.87-3.52-.06-11.65-3.67-23.73,2.35-34.81,2.97-5.47,3.2-10.32,.32-15.76-1.56-2.95-1.7-6.78-3.58-9.41-2.77-3.86-4.96-9.3-11.58-7.82-6.92,1.54-13.88,2.91-22.41,4.68,.89-6.99,1.59-14.28,2.9-21.45,.36-1.96,2.23-4.5,4.01-5.19,8.73-3.4,17.95-5.63,26.4-9.58,4.38-2.05,8.91-6.18,10.84-10.51,2.11-4.73-.05-9.97-5.75-12.63-4.6-2.15-9.15-4.53-13.33-7.39-3.63-2.49-6.72-5.79-10.04-8.73,4-2.2,7.78-5.03,12.03-6.46,8.88-2.98,18.11-4.89,26.97-7.92,4.03-1.38,6.37-4.15,4.2-9.66-3.61-9.15-8.58-15.73-19.67-16.07,8.62-6.09,17.13-11.56,25.84-16.67,10.18-5.97,10.82-8.5,3.64-17.75-2.09-2.69-4.8-5.05-6.3-8.03-2.87-5.73-8.04-6.46-12.92-5.64-6.32,1.06-12.44,3.48-18.52,5.69-4.07,1.49-7.91,3.63-11.85,5.48-.57-.58-1.15-1.15-1.72-1.73,14.41-14.78,15.7-38.82,38.58-49.43-7.01-7.88-12.99-15.14-19.55-21.83-5.06-5.16-9.17-5.42-11.62-.65,2.21,2.55,1.41,7.45-2.37,8.32-.26,.75-.67,1.44-1.26,1.98-2.96,6.57-7.5,11.89-12.83,16.95-7.53,7.15-14.31,15.12-22.12,21.93-9.39,8.2-19.52,15.54-30.92,24.51,0-5.03-.74-7.56,.12-9.26,4.51-8.89,8.95-18.61,18.45-22.69,8.07-3.47,12.14-7.95,12.75-15.12-1.81-1.8-1.92-5.05-.33-7.03-.89-5.65-2.89-8.82-7.55-11.78-7.54-4.79-14.93-9.99-21.61-15.89-3.37-2.97-5.06-7.86-7.57-11.97-12.6,10.29-14.59,26.59-5.65,40.75,2.21,3.51,3.65,7.51,5.52,11.23,.5,.56,.85,1.24,1.06,1.97,.07,.12,.13,.24,.2,.36,3.79,6.39-1.25,10.38-4.24,14.16-1.14,1.45-6.48,.32-9.54-.73-.29-.1-.57-.22-.86-.34-1.74,.05-3.41-.94-4.42-2.37-1.6-.99-3.2-2.02-4.89-2.8-5.47-2.53-10.49-7.29-17.48-4.5,3.88,6.53,6.72,11.3,9.18,14.99,.16,.2,.3,.41,.43,.64,6.43,9.48,10.43,11.49,24.48,18.53-4.54,5.51-8.73,11.08-13.42,16.18-9.48,10.34-19.36,20.31-28.77,30.71-1.97,2.18-3.55,5.48-3.76,8.38-1.3,17.64-2.25,35.31-3.09,52.98-.28,5.95,7.46,14.27,12.99,14.58,4.83,.27,14.85-8.96,15.02-14.15,.59-18.25,1.39-36.51,1.35-54.77-.02-7.78,4.33-11.03,11.39-15.61,2.43,67.37-3.14,132.93-3.24,198.46-24.56,4.84-48.19,6.04-62.09-23.04-5.01,11.25-3.42,20.48-2.29,29.99,2.14,18.06,17.64,26.39,33.66,22.15,7.44-1.97,14.77-4.34,22.2-6.38,2.4-.66,4.93-.86,7.31-1.25,2.33,16.31,2.11,32.42,14.21,45.86,1.23-2.86,2.36-4.52,2.64-6.32,2.09-13.44,4.5-26.85,5.77-40.38,.53-5.66,2.18-9.5,7.25-11.4,8.11-3.05,16.29-5.9,24.56-8.47,3.47-1.08,7.23-1.2,12.45-2-5.2,6.28-9.23,10.89-12.95,15.74-3.18,4.14-3.18,7.69,2.24,10.38,2.82,1.4,5.11,3.87,7.63,5.86-.2,.52-.41,1.04-.61,1.55h-14.89c-.17,.57-.33,1.14-.5,1.72,2.42,1.42,4.85,2.84,8.17,4.79-20.68,21.82-40.94,43.2-62.66,66.12-1.27-10.33-2.26-18.48-3.26-26.63-.62-.15-1.25-.3-1.87-.44-1.24,2.14-2.93,4.15-3.66,6.46-2.66,8.48-7.68,14.77-14.89,20.07-5.78,4.25-10.84,9.79-15.24,15.51-1.75,2.28-1.91,6.91-1.02,9.93,.62,2.07,1.27,4.14,1.94,6.2,1.04,1,1.54,2.46,1.52,3.91,.8,1.04,1.15,2.41,1.05,3.73,1.96,5.67,4.03,11.31,6.15,16.92,.94,2.5,3.13,4.53,4.75,6.77,1.63-1.5,3.61-2.79,5.14-4.35,.1-.58,.3-1.14,.6-1.66,.26-.34,.53-.69,.79-1.03,.08-.08,.17-.15,.26-.23,.23-1.58,1.11-3.05,2.65-3.75,9.03-15.35,17.94-30.77,26.64-46.31,14.45-25.81,33.88-47.07,57.32-64.8,3.94-2.98,7.99-4.07,11.95-.87,11.73,9.48,23.46,18.99,34.83,28.91,15.19,13.24,23.19,29.35,17.08,51.3,3-.66,5.03-.87,6.88-1.56,12.68-4.71,20.03-14.97,26.15-26.22,5.04-9.28,3.77-15.03-4.63-20.85Zm-65.13-299.87c.16-2.15,6.41-3.83,9.86-5.72,1.16,2.98,3.86,6.36,3.21,8.87-2.19,8.45-5.57,16.58-8.5,24.84-1.23-.16-2.46-.32-3.69-.48-.46-9.18-1.58-18.41-.89-27.5Zm-56.96-72.2c2.49,.49,4.66,2.68,6.79,4.93,1.24,.5,2.09,1.46,2.54,2.61,.11,.1,.22,.21,.32,.31,.64,.59,.79,1.72,1.39,3.14-.58,.29-1.17,.59-1.75,.88-.68,1.62-2.16,2.88-4.45,2.88-.38,0-.73-.04-1.07-.1-.88,.44-1.75,.88-2.62,1.32-.62-.96-1.14-2.03-1.57-3.15-.99-1.16-1.38-2.79-1.17-4.32-.8-4.65-.17-8.84,1.57-8.49Zm58.43,279.97c-2.78,.19-8.09-2.49-8.24-4.29-.53-6.24,.7-12.62,1.25-18.95,1.38-.25,2.76-.5,4.14-.75,2.96,5.85,6.42,11.53,8.52,17.68,.49,1.43-3.52,6.17-5.67,6.31Zm-7.62-60.22c1.9-.18,5.04,1.55,5.87,3.26,2.95,6.1,5.15,12.57,7.64,18.9l-2.55,2.73c-8.93-6.75-17.19-17.88-29.3-4.15,1.29-8.23,12.29-20.15,18.34-20.73Zm-38.35-47.3c5.55-6.85,9.66-11.92,14.59-18.01,3.22,5.17,5.91,9.5,9.77,15.7-8.73,.83-15.33,1.45-24.36,2.3Zm6.06,55.84c-3.91,11.58-8.45,22.99-7.17,35.47,.61,5.9,2.49,11.68,4.09,18.84-7.64,3.11-15.61,6.36-24.02,9.78-.6-2.88-.88-3.59-.88-4.3-.52-66.86-1.08-133.72-1.45-200.59-.05-8.08,4.54-13.57,10.9-18.55,16.85-13.21,33.13-27.14,49.69-40.73,1.84-1.51,3.97-2.66,5.9-3.94,5.41,6.62,1.39,21.07-7.6,25.34-9.89,4.69-15.77,11.64-17.16,22.62-.12-.95,0-2.01-.39-2.83-1.7-3.59-4.45-10.35-5.21-10.14-5.36,1.51-10.2,4.6-10.99,11.1-.56,4.6-1.2,9.21-1.45,13.83-.3,5.59-1.11,11.32,5.9,14.27,2.17,.91,3.39,4.13,3.93,7.71-3.88-1.12-7.76-2.24-11.95-3.45-.69,2.22-1.07,3.59-1.54,4.92-1.87,5.27-6.73,10.43-1.82,16.17,5.49,6.43,12.98,7.17,20.82,5.97,2.56-.39,5.09-.95,8.84,.15-6.76,8.41-13.56,16.77-20.26,25.23-5.28,6.67-10.47,13.41-15.62,20.18-3.61,4.75-1.66,8.79,2.95,10.51,7.37,2.76,15.15,4.38,24.81,7.05-3.31,11.5-6.33,23.6-10.31,35.38Zm19.12,43.33c-.32,.78-1.8,1.09-2.74,1.62-.84-.27-1.69-.54-2.53-.81,.84-7.71,1.23-15.52,2.83-23.07,.41-1.92,4.7-3,7.21-4.47,.77,2.82,2.73,5.96,2.09,8.41-1.65,6.28-4.37,12.29-6.87,18.33Z"/><path class="ab" d="M488.72,1754.12c35.27-125.22,142.53-186.41,230.61-190.11-9.41,41.95-30.03,77.04-57.66,108.19-51.17,57.71-128.91,84.82-172.95,81.92Z"/><path class="ab" d="M718.12,1421.14c-108.14-8.08-200.65-83.72-229.18-190.93,115.08,.59,215.33,103.09,229.18,190.93Z"/><rect x="405.23" y="1397.29" width="13.15" height="12.81"/><rect x="405.23" y="1421.11" width="13.15" height="56.11"/><path d="M455.84,1397.29h8.07c0,23.27-16.41,42.11-36.7,42.11v-18.42c15.85,0,28.63-10.71,28.63-23.68Z"/><path d="M418.38,1450.73v-7.46c25.16,0,45.52,15.18,45.52,33.95h-19.92c0-14.66-11.58-26.49-25.6-26.49Z"/><path id="r" class="af" d="M461.62,1775.09c155.4,0,281.38-126.69,281.38-282.96s-125.98-282.96-281.38-282.96"/><path class="ab" d="M466.65,1398.27c53.95,0,97.69,43.98,97.69,98.24,0,54.26-43.74,98.24-97.69,98.24"/><text class="au" transform="translate(467.42 1425.37) scale(1.05 1)"><tspan class="am" x="0" y="0">y</tspan><tspan x="19.72" y="0">o</tspan><tspan class="aa" x="40.83" y="0">k</tspan><tspan x="64.36" y="0">ushin </tspan><tspan x="0" y="46.67">a</tspan><tspan class="aa" x="21.35" y="46.67">ra</tspan><tspan x="60.78" y="46.67">té </tspan><tspan x="0" y="93.33">C</tspan><tspan class="b`" x="26.83" y="93.33">l</tspan><tspan x="38.93" y="93.33">ub </tspan><tspan x="0" y="140">Gode</tspan><tspan class="a`" x="92.17" y="140">r</tspan><tspan x="110.83" y="140">ville</tspan></text><path d="M365.08,1669c-6.93-8.41-6.88-9.89,2.81-14.85,1.27-.65,2.76-.88,4.03-1.54,4.73-2.45,9.41-5.01,16.11-8.6-9.39-9.38-17.06-17.03-25.31-25.27,5.14-2.97,12.75-3.3,10.85-12.14-1.34-6.25-3.63-11.36-7.34-13.76-4.63,4.11-7.99,8.35-12.37,10.62-4.12,2.14-9.27,2.58-14.04,3.08-4.35,.46-8.79,0-13.2-.05,.53-5.46,1.05-10.91,1.57-16.37,.02-.19-.05-.38-.23-1.52-1.34,.42-2.64,.42-3.04,1.02-4.44,6.63-9.56,13-12.77,20.2-1.8,4.04-2.32,11.51,.07,13.85,3.06,3,10.12,4.2,14.63,3.03,14.5-3.77,14.36-4.33,13.96,10.49-.03,1.23,.07,2.5-.15,3.7-.86,4.66-3.24,7.9-8.27,8.63-3.35,.49-6.67,1.26-10.03,1.64-4.86,.56-7.72-2.77-6.65-7.67,.91-4.15,1.98-8.26,2.98-12.39-.73-.49-1.45-.99-2.18-1.48-2.24,2.61-4.72,5.05-6.66,7.87-1.6,2.33-1.9,6.17-3.95,7.47-5.52,3.48-3.44,6.86-1.27,10.93,2.97,5.57,7,8.37,13.59,7.29,5.27-.87,10.67-.91,15.98-1.57,5.75-.72,9.74,.89,12.37,6.55,2.74,5.9,6.01,11.65,9.77,16.95,10.82,15.26,7.09,32.21-9.94,40.19-3.48,1.63-10.12,1.38-12.64-.92-4.2-3.83-7.75-9.75-8.75-15.3-.94-5.24,11.9-10.96,19.33-8.92-2.4,3.73-4.67,7.26-7.32,11.37,11.43,.87,15.83-3.3,15.64-13.28-.15-8.31-6.73-17.85-14.65-20.81-7.92-2.97-13.11,1.93-17.7,7.09-6.3,7.09-12.43,14.39-18.05,22.02-5.87,7.97-4.75,11.87,2.79,18.15,11.07,9.22,21.76,18.89,32.75,28.21,5.19,4.4,10.45,8.81,16.14,12.5,3.19,2.07,7.33,2.67,13.04,4.61-1.39-4.77-1.41-7.8-2.92-9.53-6.26-7.17-4.81-14.73-.82-21.72,4.91-8.59,10.41-16.98,16.64-24.64,6.07-7.46,7.59-14.82,2.63-21.86-5.58-7.92-11.29-15.78-17.44-23.25Zm-16.52-45.89s-.03,0-.04,0c0,0-.06,0-.06,0,0,0,.02,0,.02,0,.01,0,.03,0,.04,0,0,0,.06,0,.06,0,0,0-.02,0-.02,0Z"/><text class="ak" transform="translate(3178.83 1103.49)"><tspan x="0" y="0">C82619</tspan></text><text class="ak" transform="translate(3201.7 1163.25)"><tspan x="0" y="0">000000</tspan></text><text class="ak" transform="translate(3231.92 1223.82)"><tspan x="0" y="0">FFFFFF</tspan></text></g></svg>